<svg width="109" height="74" viewBox="0 0 109 74" fill="none" xmlns="http://www.w3.org/2000/svg">
<g filter="url(#filter0_d_104_17108)">
<path d="M14.0718 3.56992H10.3957C10.055 3.56992 9.78632 3.54563 9.58974 3.49706C9.40627 3.44849 9.26866 3.36349 9.17692 3.24207C9.09829 3.1085 9.04587 2.92636 9.01966 2.69565C9.00655 2.4528 9 2.14924 9 1.78496C9 1.42068 9.00655 1.12319 9.01966 0.892479C9.04587 0.66177 9.09829 0.479632 9.17692 0.346063C9.26866 0.212495 9.40627 0.121426 9.58974 0.0728555C9.78632 0.0242852 10.055 0 10.3957 0H17.1384H17.5906H24.7854C25.1261 0 25.3883 0.0242852 25.5717 0.0728555C25.7683 0.121426 25.9125 0.212495 26.0042 0.346063C26.0959 0.479632 26.1484 0.66177 26.1615 0.892479C26.1877 1.12319 26.2008 1.42068 26.2008 1.78496C26.2008 2.14924 26.1877 2.4528 26.1615 2.69565C26.1484 2.92636 26.0959 3.1085 26.0042 3.24207C25.9125 3.36349 25.7683 3.44849 25.5717 3.49706C25.3883 3.54563 25.1261 3.56992 24.7854 3.56992H21.1094L20.323 29.634C20.3099 29.8768 20.2706 30.0711 20.2051 30.2168C20.1527 30.3625 20.0347 30.4779 19.8512 30.5629C19.6678 30.6479 19.3926 30.7086 19.0256 30.745C18.6718 30.7693 18.1934 30.7814 17.5906 30.7814C16.9877 30.7814 16.5094 30.7693 16.1555 30.745C15.8017 30.7207 15.5265 30.6661 15.3299 30.5811C15.1464 30.4961 15.0285 30.3747 14.976 30.2168C14.9236 30.0468 14.8909 29.8222 14.8778 29.5429L14.0718 3.56992Z" fill="#FAF2E6"/>
<path d="M29.3461 10.218C29.3461 9.96298 29.3723 9.75049 29.4247 9.58049C29.4902 9.39835 29.6213 9.25871 29.8179 9.16157C30.0276 9.06443 30.329 8.99765 30.7221 8.96122C31.1284 8.91265 31.6657 8.88837 32.3341 8.88837C33.0025 8.88837 33.5332 8.91265 33.9264 8.96122C34.3196 8.99765 34.621 9.06443 34.8307 9.16157C35.0404 9.25871 35.1714 9.39835 35.2238 9.58049C35.2894 9.75049 35.3221 9.96298 35.3221 10.218V11.2926C35.6891 10.9162 36.0626 10.5701 36.4426 10.2544C36.8358 9.92656 37.2421 9.64728 37.6614 9.41657C38.0939 9.18586 38.546 9.00372 39.0178 8.87015C39.5027 8.73658 40.0204 8.6698 40.5708 8.6698C41.1999 8.6698 41.7831 8.7548 42.3204 8.92479C42.8708 9.09479 43.336 9.368 43.7161 9.74442C44.1093 10.1208 44.4107 10.6126 44.6204 11.2197C44.8301 11.8147 44.9218 12.5433 44.8956 13.4054L44.758 17.5946C44.758 17.8253 44.7187 18.0074 44.64 18.141C44.5745 18.2746 44.4435 18.3778 44.2469 18.4506C44.0503 18.5235 43.7685 18.5721 43.4016 18.5964C43.0477 18.6206 42.5759 18.6328 41.9862 18.6328C41.3965 18.6328 40.9247 18.6206 40.5708 18.5964C40.217 18.5721 39.9418 18.5235 39.7452 18.4506C39.5617 18.3778 39.4372 18.2746 39.3717 18.141C39.3193 18.0074 39.2865 17.8253 39.2734 17.5946L39.1948 15.0993C39.1816 14.6257 39.1358 14.2311 39.0571 13.9154C38.9785 13.5997 38.8671 13.3508 38.723 13.1686C38.5919 12.9865 38.4346 12.859 38.2512 12.7861C38.0677 12.7133 37.858 12.6769 37.6221 12.6769C37.2421 12.6769 36.8751 12.8104 36.5213 13.0776C36.1805 13.3447 35.8725 13.6422 35.5973 13.97L35.1059 29.7432C35.1059 29.974 35.0731 30.1561 35.0076 30.2897C34.9421 30.4232 34.8176 30.5264 34.6341 30.5993C34.4506 30.6722 34.1885 30.7207 33.8478 30.745C33.5201 30.7693 33.0811 30.7814 32.5307 30.7814C31.9803 30.7814 31.5347 30.7693 31.1939 30.745C30.8663 30.7207 30.6107 30.6722 30.4273 30.5993C30.2569 30.5264 30.1389 30.4232 30.0734 30.2897C30.0079 30.1561 29.9751 29.974 29.9751 29.7432L29.3461 10.218Z" fill="#FAF2E6"/>
<path d="M47.8246 25.4812C47.8115 24.8012 47.9688 24.2062 48.2964 23.6962C48.6241 23.1741 49.0434 22.7188 49.5545 22.3302C50.0788 21.9416 50.6685 21.6138 51.3238 21.3467C51.979 21.0674 52.6277 20.8306 53.2699 20.6363C54.0956 20.3813 54.9671 20.1627 55.8844 19.9806C56.8149 19.7985 57.7192 19.6406 58.5972 19.507L58.4203 13.4783C58.3941 12.8104 58.2106 12.3186 57.8699 12.0029C57.5423 11.6751 57.018 11.5112 56.2972 11.5112C55.9565 11.5112 55.6485 11.5354 55.3733 11.584C55.0981 11.6326 54.8557 11.7297 54.646 11.8754C54.4494 12.0212 54.2921 12.2215 54.1742 12.4765C54.0562 12.7315 53.9907 13.0593 53.9776 13.46L53.84 17.5946C53.84 17.8253 53.8007 18.0074 53.722 18.141C53.6565 18.2746 53.5189 18.3778 53.3092 18.4506C53.0995 18.5235 52.7981 18.5721 52.405 18.5964C52.0249 18.6206 51.5138 18.6328 50.8716 18.6328C50.2819 18.6328 49.8035 18.6206 49.4366 18.5964C49.0696 18.5721 48.7879 18.5235 48.5913 18.4506C48.3947 18.3778 48.2637 18.2746 48.1981 18.141C48.1326 18.0074 48.0933 17.8253 48.0802 17.5946L47.9229 13.715C47.8967 13.0715 48.0147 12.5008 48.2768 12.0029C48.5389 11.4929 48.8927 11.0558 49.3383 10.6915C49.797 10.3151 50.3147 9.99941 50.8913 9.74442C51.481 9.48942 52.0904 9.283 52.7195 9.12515C53.3616 8.95515 53.9973 8.8398 54.6263 8.77908C55.2554 8.70623 55.832 8.6698 56.3562 8.6698C57.4833 8.6698 58.5514 8.79123 59.5605 9.03408C60.5827 9.26479 61.4739 9.60478 62.234 10.0541C62.9941 10.5033 63.5904 11.0558 64.0229 11.7115C64.4684 12.3551 64.6781 13.0958 64.6519 13.9336L64.0425 29.7432C64.0294 29.974 63.9901 30.1561 63.9246 30.2897C63.8722 30.4232 63.7542 30.5264 63.5707 30.5993C63.3872 30.6722 63.1251 30.7207 62.7844 30.745C62.4568 30.7693 62.0177 30.7814 61.4673 30.7814C60.9562 30.7814 60.5434 30.7693 60.2289 30.745C59.9274 30.7207 59.6915 30.6722 59.5212 30.5993C59.3639 30.5264 59.2525 30.4232 59.187 30.2897C59.1346 30.1561 59.1083 29.974 59.1083 29.7432L59.0887 29.1058C58.7348 29.3486 58.3482 29.5854 57.9289 29.8161C57.5095 30.0347 57.0639 30.235 56.5921 30.4172C56.1203 30.5872 55.6158 30.7268 55.0785 30.8361C54.5542 30.9454 54.0038 31 53.4272 31C52.5098 31 51.7038 30.8846 51.0092 30.6539C50.3147 30.4111 49.7315 30.0893 49.2597 29.6886C48.801 29.2758 48.4537 28.7961 48.2178 28.2497C47.9819 27.6911 47.8574 27.0962 47.8443 26.4647L47.8246 25.4812ZM53.2109 25.9183C53.2109 26.2826 53.2699 26.5983 53.3879 26.8655C53.5058 27.1204 53.6631 27.3329 53.8597 27.5029C54.0562 27.6608 54.2856 27.7822 54.5477 27.8672C54.8229 27.9401 55.1178 27.9765 55.4323 27.9765C56.1924 27.9765 56.8477 27.8611 57.3981 27.6304C57.9485 27.3997 58.4203 27.1326 58.8135 26.829L58.6759 22.1481C57.9682 22.2573 57.3457 22.3848 56.8084 22.5306C56.271 22.6641 55.7927 22.8159 55.3733 22.9859C54.7181 23.2652 54.1938 23.5748 53.8007 23.9148C53.4075 24.2427 53.2109 24.6737 53.2109 25.208V25.9183Z" fill="#FAF2E6"/>
<path d="M69.4092 10.218C69.4092 9.96298 69.4354 9.75049 69.4878 9.58049C69.5533 9.39835 69.6844 9.25871 69.881 9.16157C70.0906 9.06443 70.3921 8.99765 70.7852 8.96122C71.1915 8.91265 71.7288 8.88837 72.3972 8.88837C73.0656 8.88837 73.5963 8.91265 73.9895 8.96122C74.3958 8.99765 74.6972 9.06443 74.8938 9.16157C75.1034 9.25871 75.2345 9.39835 75.2869 9.58049C75.3524 9.75049 75.3852 9.96298 75.3852 10.218L75.3459 11.329C75.7128 10.9405 76.0863 10.5883 76.4664 10.2726C76.8596 9.94477 77.2724 9.66549 77.7049 9.43478C78.1504 9.19193 78.6222 9.00372 79.1202 8.87015C79.6182 8.73658 80.1621 8.6698 80.7519 8.6698C81.5513 8.6698 82.2917 8.80337 82.9732 9.07051C83.6678 9.33764 84.2575 9.7262 84.7424 10.2362C85.2404 10.7462 85.6205 11.3655 85.8826 12.094C86.1578 12.8226 86.2823 13.6483 86.2561 14.5711L85.7843 29.7432C85.7843 29.974 85.7516 30.1561 85.686 30.2897C85.6205 30.4232 85.496 30.5264 85.3125 30.5993C85.129 30.6722 84.8669 30.7207 84.5262 30.745C84.1986 30.7693 83.7595 30.7814 83.2091 30.7814C82.6587 30.7814 82.2131 30.7693 81.8724 30.745C81.5447 30.7207 81.2892 30.6722 81.1057 30.5993C80.9353 30.5264 80.8174 30.4232 80.7519 30.2897C80.6863 30.1561 80.6536 29.974 80.6536 29.7432L80.2014 15.0993C80.1883 14.6257 80.1228 14.2311 80.0049 13.9154C79.8869 13.5997 79.7296 13.3508 79.5331 13.1686C79.3365 12.9865 79.1006 12.859 78.8254 12.7861C78.5633 12.7133 78.2749 12.6769 77.9604 12.6769C77.4624 12.6769 77.0234 12.8043 76.6433 13.0593C76.2633 13.3143 75.9356 13.6179 75.6604 13.97L75.169 29.7432C75.169 29.974 75.1362 30.1561 75.0707 30.2897C75.0052 30.4232 74.8807 30.5264 74.6972 30.5993C74.5137 30.6722 74.2516 30.7207 73.9109 30.745C73.5832 30.7693 73.1442 30.7814 72.5938 30.7814C72.0433 30.7814 71.5978 30.7693 71.257 30.745C70.9294 30.7207 70.6738 30.6722 70.4904 30.5993C70.32 30.5264 70.202 30.4232 70.1365 30.2897C70.071 30.1561 70.0382 29.974 70.0382 29.7432L69.4092 10.218Z" fill="#FAF2E6"/>
<path d="M90.7381 25.4812C90.7381 25.2505 90.7709 25.0623 90.8364 24.9166C90.902 24.7709 91.0265 24.6555 91.2099 24.5705C91.4065 24.4734 91.6817 24.4066 92.0356 24.3702C92.3894 24.3337 92.8547 24.3155 93.4313 24.3155C94.021 24.3155 94.4928 24.3337 94.8467 24.3702C95.2005 24.4066 95.4692 24.4734 95.6526 24.5705C95.8492 24.6555 95.9803 24.7769 96.0458 24.9348C96.1113 25.0805 96.1441 25.2687 96.1441 25.4994V26.3919C96.1441 27.1326 96.3735 27.6486 96.8321 27.9401C97.3039 28.2315 97.9657 28.3772 98.8176 28.3772C99.6694 28.3772 100.259 28.2133 100.587 27.8854C100.928 27.5454 101.098 26.9869 101.098 26.2098V25.3173C101.098 25.0137 101.052 24.7526 100.96 24.5341C100.882 24.3155 100.757 24.1273 100.587 23.9694C100.416 23.7995 100.194 23.6537 99.9184 23.5323C99.6563 23.4109 99.3484 23.2955 98.9945 23.1863L93.1757 21.292C92.2453 20.9884 91.5507 20.4906 91.092 19.7985C90.6464 19.1063 90.404 18.2564 90.3646 17.2485L90.2467 14.0611C90.2074 13.0897 90.4236 12.264 90.8954 11.584C91.3672 10.904 92.0028 10.3515 92.8022 9.92656C93.6017 9.48942 94.519 9.17372 95.5544 8.97944C96.5897 8.77301 97.6512 8.6698 98.739 8.6698C99.8005 8.6698 100.836 8.7548 101.845 8.92479C102.854 9.09479 103.745 9.38014 104.518 9.78085C105.305 10.1694 105.921 10.6915 106.366 11.3472C106.825 11.9908 107.035 12.7983 106.995 13.7697L106.838 17.5946C106.825 17.8253 106.779 18.0074 106.7 18.141C106.635 18.2746 106.504 18.3778 106.307 18.4506C106.111 18.5235 105.829 18.5721 105.462 18.5964C105.108 18.6206 104.636 18.6328 104.047 18.6328C103.404 18.6328 102.887 18.6206 102.494 18.5964C102.114 18.5721 101.819 18.5235 101.609 18.4506C101.399 18.3778 101.255 18.2746 101.177 18.141C101.111 18.0074 101.078 17.8253 101.078 17.5946L100.941 13.46C100.928 13.0593 100.862 12.7315 100.744 12.4765C100.639 12.2215 100.489 12.0212 100.292 11.8754C100.108 11.7297 99.8857 11.6326 99.6236 11.584C99.3615 11.5354 99.0666 11.5112 98.739 11.5112C98.4113 11.5112 98.1099 11.5415 97.8347 11.6022C97.5726 11.6508 97.3432 11.7479 97.1467 11.8937C96.9501 12.0394 96.7928 12.2397 96.6749 12.4947C96.57 12.7376 96.5111 13.0533 96.4979 13.4418L96.3603 17.3942C96.3341 17.9892 96.4652 18.481 96.7535 18.8696C97.0549 19.246 97.5464 19.5374 98.2279 19.7438L103.182 21.3831C103.85 21.6016 104.4 21.8384 104.833 22.0934C105.265 22.3484 105.606 22.6459 105.855 22.9859C106.117 23.3259 106.294 23.7145 106.386 24.1516C106.478 24.5766 106.51 25.0805 106.484 25.6633L106.445 26.5012C106.406 27.339 106.17 28.0433 105.737 28.614C105.318 29.1847 104.754 29.6522 104.047 30.0165C103.352 30.3686 102.553 30.6236 101.648 30.7814C100.757 30.9271 99.8202 31 98.8373 31C97.8806 31 96.9173 30.9271 95.9475 30.7814C94.9908 30.6479 94.1259 30.405 93.3527 30.0529C92.5794 29.6886 91.9504 29.2029 91.4655 28.5958C90.9806 27.9765 90.7381 27.1872 90.7381 26.228V25.4812Z" fill="#FAF2E6"/>
<path d="M36.0027 39.5118C35.9901 39.196 36.0216 38.941 36.0973 38.7468C36.173 38.5525 36.3307 38.4007 36.5703 38.2914C36.8226 38.1821 37.1758 38.1093 37.6299 38.0729C38.084 38.0243 38.6895 38 39.4464 38C39.6608 38 39.8627 38 40.0519 38C40.2537 38 40.4429 38.0061 40.6195 38.0182H48.207C48.5349 38.0182 48.7872 38.0425 48.9638 38.0911C49.153 38.1396 49.2855 38.2307 49.3612 38.3643C49.4495 38.4978 49.4999 38.68 49.5125 38.9107C49.5378 39.1414 49.5504 39.4389 49.5504 39.8032C49.5504 40.1675 49.5378 40.471 49.5125 40.7139C49.4999 40.9446 49.4495 41.1267 49.3612 41.2603C49.2855 41.3817 49.153 41.4667 48.9638 41.5153C48.7872 41.5638 48.5349 41.5881 48.207 41.5881H42.8333L42.4927 52.7714H47.0528C47.3807 52.7714 47.633 52.7957 47.8096 52.8443C47.9988 52.8929 48.1313 52.9839 48.207 53.1175C48.2953 53.2389 48.3457 53.415 48.3583 53.6457C48.3836 53.8643 48.3962 54.1496 48.3962 54.5018C48.3962 54.8539 48.3836 55.1453 48.3583 55.376C48.3457 55.5946 48.2953 55.7707 48.207 55.9042C48.1313 56.0257 47.9988 56.1107 47.8096 56.1592C47.633 56.2078 47.3807 56.2321 47.0528 56.2321H42.3981L42.0575 67.634C42.0575 67.8768 42.026 68.0711 41.9629 68.2168C41.9125 68.3625 41.7926 68.4779 41.6034 68.5629C41.4268 68.6479 41.1682 68.7086 40.8276 68.745C40.4871 68.7693 40.0266 68.7814 39.4464 68.7814C38.8661 68.7814 38.3994 68.7693 38.0462 68.745C37.7056 68.7207 37.447 68.6661 37.2704 68.5811C37.0938 68.4961 36.974 68.3747 36.9109 68.2168C36.8605 68.0468 36.8289 67.8222 36.8163 67.5429L36.0027 39.5118Z" fill="#E9F4F5"/>
<path d="M52.9941 48.218C52.9941 47.963 53.0193 47.7505 53.0697 47.5805C53.1328 47.3984 53.259 47.2587 53.4482 47.1616C53.65 47.0644 53.9401 46.9976 54.3185 46.9612C54.7096 46.9127 55.2268 46.8884 55.8701 46.8884C56.5134 46.8884 57.0243 46.9127 57.4027 46.9612C57.7811 46.9976 58.0713 47.0644 58.2731 47.1616C58.4749 47.2587 58.6011 47.3984 58.6515 47.5805C58.7146 47.7505 58.7461 47.963 58.7461 48.218V49.2926C59.0993 48.9162 59.4588 48.5701 59.8247 48.2544C60.2031 47.9266 60.5941 47.6473 60.9978 47.4166C61.414 47.1859 61.8492 47.0037 62.3033 46.8702C62.7701 46.7366 63.2683 46.6698 63.7981 46.6698C64.4036 46.6698 64.9649 46.7548 65.4821 46.9248C66.0119 47.0948 66.4597 47.368 66.8255 47.7444C67.204 48.1208 67.4941 48.6126 67.6959 49.2197C67.8978 49.8147 67.9861 50.5433 67.9608 51.4054L67.8284 55.5946C67.8284 55.8253 67.7905 56.0074 67.7148 56.141C67.6518 56.2746 67.5256 56.3778 67.3364 56.4506C67.1472 56.5235 66.876 56.5721 66.5228 56.5964C66.1822 56.6206 65.7281 56.6328 65.1605 56.6328C64.5928 56.6328 64.1387 56.6206 63.7981 56.5964C63.4575 56.5721 63.1926 56.5235 63.0034 56.4506C62.8268 56.3778 62.707 56.2746 62.6439 56.141C62.5935 56.0074 62.5619 55.8253 62.5493 55.5946L62.4736 53.0993C62.461 52.6257 62.4169 52.2311 62.3412 51.9154C62.2655 51.5997 62.1583 51.3508 62.0195 51.1686C61.8934 50.9865 61.742 50.859 61.5654 50.7861C61.3888 50.7133 61.187 50.6769 60.9599 50.6769C60.5941 50.6769 60.2409 50.8104 59.9003 51.0776C59.5724 51.3447 59.2759 51.6422 59.011 51.97L58.538 67.7432C58.538 67.974 58.5065 68.1561 58.4434 68.2897C58.3803 68.4232 58.2605 68.5264 58.0839 68.5993C57.9073 68.6722 57.655 68.7207 57.327 68.745C57.0117 68.7693 56.5891 68.7814 56.0593 68.7814C55.5295 68.7814 55.1006 68.7693 54.7727 68.745C54.4573 68.7207 54.2113 68.6722 54.0347 68.5993C53.8707 68.5264 53.7572 68.4232 53.6941 68.2897C53.6311 68.1561 53.5995 67.974 53.5995 67.7432L52.9941 48.218Z" fill="#E9F4F5"/>
<path d="M70.8179 52.2068C70.7801 51.2354 70.9882 50.4036 71.4423 49.7115C71.9091 49.0072 72.5272 48.4305 73.2966 47.9812C74.0787 47.5319 74.968 47.2041 75.9645 46.9976C76.9737 46.7791 78.0017 46.6698 79.0487 46.6698C80.0452 46.6698 81.0228 46.7791 81.9815 46.9976C82.9402 47.2041 83.7917 47.5319 84.5359 47.9812C85.2801 48.4305 85.8667 49.0072 86.2956 49.7115C86.7371 50.4036 86.9389 51.2354 86.9011 52.2068L86.6173 58.9277C86.6046 59.1584 86.5605 59.3406 86.4848 59.4741C86.4217 59.6077 86.2956 59.7109 86.1064 59.7838C85.9172 59.8566 85.646 59.9052 85.2928 59.9295C84.9522 59.9538 84.4981 59.9659 83.9304 59.9659H76.5511L76.4376 63.9001C76.425 64.3615 76.4691 64.7501 76.57 65.0658C76.6836 65.3815 76.8475 65.6365 77.062 65.8308C77.2764 66.0251 77.5413 66.1647 77.8567 66.2497C78.172 66.3347 78.5315 66.3772 78.9352 66.3772C79.7425 66.3772 80.3354 66.2072 80.7138 65.8672C81.0922 65.5272 81.2814 64.9262 81.2814 64.064V63.4994C81.2814 63.2687 81.313 63.0805 81.376 62.9348C81.4391 62.7769 81.559 62.6555 81.7355 62.5705C81.9248 62.4734 82.1897 62.4066 82.5302 62.3702C82.8708 62.3337 83.3249 62.3155 83.8926 62.3155C84.4476 62.3155 84.8954 62.3337 85.236 62.3702C85.5766 62.4066 85.8352 62.4734 86.0118 62.5705C86.201 62.6555 86.3208 62.7709 86.3713 62.9166C86.4343 63.0623 86.4659 63.2505 86.4659 63.4812V64.2826C86.4659 65.2419 86.2514 66.0251 85.8226 66.6322C85.3937 67.2393 84.826 67.719 84.1196 68.0711C83.4259 68.4232 82.6249 68.6661 81.7166 68.7996C80.821 68.9332 79.9002 69 78.9541 69C77.9954 69 77.062 68.915 76.1538 68.745C75.2455 68.5629 74.4319 68.2714 73.7129 67.8707C73.0065 67.4579 72.4263 66.9175 71.9721 66.2497C71.5306 65.5819 71.291 64.7501 71.2531 63.7544L70.8179 52.2068ZM81.2814 57.2338L81.0922 51.8972C81.0796 51.3872 81.0165 50.9743 80.903 50.6586C80.8021 50.3429 80.657 50.1001 80.4678 49.9301C80.2912 49.7601 80.0768 49.6508 79.8245 49.6022C79.5848 49.5415 79.3262 49.5112 79.0487 49.5112C78.7334 49.5112 78.4432 49.5415 78.1783 49.6022C77.9134 49.6508 77.6801 49.7601 77.4783 49.9301C77.289 50.1001 77.1314 50.3429 77.0052 50.6586C76.8917 50.9743 76.8286 51.3872 76.816 51.8972L76.6457 57.2338H81.2814Z" fill="#E9F4F5"/>
<path d="M90.9124 52.2068C90.8746 51.2354 91.0827 50.4036 91.5368 49.7115C92.0035 49.0072 92.6216 48.4305 93.3911 47.9812C94.1732 47.5319 95.0625 47.2041 96.059 46.9976C97.0681 46.7791 98.0962 46.6698 99.1432 46.6698C100.14 46.6698 101.117 46.7791 102.076 46.9976C103.035 47.2041 103.886 47.5319 104.63 47.9812C105.375 48.4305 105.961 49.0072 106.39 49.7115C106.832 50.4036 107.033 51.2354 106.996 52.2068L106.712 58.9277C106.699 59.1584 106.655 59.3406 106.579 59.4741C106.516 59.6077 106.39 59.7109 106.201 59.7838C106.012 59.8566 105.74 59.9052 105.387 59.9295C105.047 59.9538 104.593 59.9659 104.025 59.9659H96.6456L96.532 63.9001C96.5194 64.3615 96.5636 64.7501 96.6645 65.0658C96.778 65.3815 96.942 65.6365 97.1564 65.8308C97.3709 66.0251 97.6358 66.1647 97.9511 66.2497C98.2665 66.3347 98.626 66.3772 99.0296 66.3772C99.837 66.3772 100.43 66.2072 100.808 65.8672C101.187 65.5272 101.376 64.9262 101.376 64.064V63.4994C101.376 63.2687 101.407 63.0805 101.47 62.9348C101.534 62.7769 101.653 62.6555 101.83 62.5705C102.019 62.4734 102.284 62.4066 102.625 62.3702C102.965 62.3337 103.419 62.3155 103.987 62.3155C104.542 62.3155 104.99 62.3337 105.33 62.3702C105.671 62.4066 105.93 62.4734 106.106 62.5705C106.295 62.6555 106.415 62.7709 106.466 62.9166C106.529 63.0623 106.56 63.2505 106.56 63.4812V64.2826C106.56 65.2419 106.346 66.0251 105.917 66.6322C105.488 67.2393 104.92 67.719 104.214 68.0711C103.52 68.4232 102.719 68.6661 101.811 68.7996C100.915 68.9332 99.9946 69 99.0486 69C98.0899 69 97.1564 68.915 96.2482 68.745C95.34 68.5629 94.5264 68.2714 93.8074 67.8707C93.101 67.4579 92.5207 66.9175 92.0666 66.2497C91.6251 65.5819 91.3854 64.7501 91.3476 63.7544L90.9124 52.2068ZM101.376 57.2338L101.187 51.8972C101.174 51.3872 101.111 50.9743 100.997 50.6586C100.897 50.3429 100.751 50.1001 100.562 49.9301C100.386 49.7601 100.171 49.6508 99.9189 49.6022C99.6793 49.5415 99.4207 49.5112 99.1432 49.5112C98.8278 49.5112 98.5377 49.5415 98.2728 49.6022C98.0079 49.6508 97.7745 49.7601 97.5727 49.9301C97.3835 50.1001 97.2258 50.3429 97.0997 50.6586C96.9861 50.9743 96.9231 51.3872 96.9105 51.8972L96.7402 57.2338H101.376Z" fill="#E9F4F5"/>
<path fill-rule="evenodd" clip-rule="evenodd" d="M16.7366 39C9.98033 39.0044 4.50435 44.4803 4.5 51.2366C4.50323 51.5006 4.52168 51.7642 4.55526 52.0261V52.2787C4.55526 52.4603 4.61842 52.6419 4.66579 52.8313C4.71315 53.0208 4.70526 53.0208 4.72894 53.1156C4.75263 53.2103 4.83157 53.4866 4.91052 53.7471L4.97368 53.9366C5.06052 54.1892 5.14736 54.4418 5.27367 54.726C5.39998 55.0103 5.51051 55.2787 5.64472 55.5629L5.77103 55.8155L6.07103 56.3997L6.23681 56.6918C6.33944 56.8892 6.44997 57.0786 6.56049 57.2681L6.72628 57.5365C6.86838 57.7813 7.02627 58.026 7.18417 58.2707L7.23943 58.3576C7.72889 59.147 8.3052 59.9365 8.92887 60.7259C8.94712 60.745 8.96302 60.7662 8.97624 60.7891L10.8867 63.1575L11.4709 63.8285L12.0472 64.4838L15.9472 68.5732L16.0103 68.6363L16.1682 68.7863C16.3217 68.9303 16.5263 69.007 16.7366 68.9995C16.9515 68.9979 17.1587 68.9195 17.3208 68.7784C17.3557 68.7397 17.3926 68.7028 17.4314 68.6679L18.2208 67.8785L18.2761 67.8232L21.9944 63.8759L22.5786 63.2049L22.7365 63.0154L23.1628 62.4943L24.5207 60.7891C25.1602 59.9523 25.7365 59.1391 26.1944 58.4207L26.2733 58.3023C26.4312 58.0497 26.5891 57.8049 26.7312 57.5602L26.8891 57.2918C27.0075 57.1023 27.118 56.9129 27.2207 56.7155L27.3786 56.4234C27.4891 56.2339 27.5838 56.0366 27.6865 55.8392L27.7891 55.5787C27.9154 55.3024 28.0417 55.026 28.1759 54.7024C28.3101 54.3787 28.3733 54.1892 28.4601 53.9129L28.5391 53.6603C28.6022 53.4629 28.6575 53.2813 28.7049 53.0919L28.7759 52.8077C28.8154 52.6182 28.847 52.4366 28.8864 52.184V52.0024C28.92 51.7405 28.9385 51.4769 28.9417 51.213C28.9244 44.4782 23.4714 39.0217 16.7366 39Z" fill="#FFB13E"/>
<g filter="url(#filter1_d_104_17108)">
<path fill-rule="evenodd" clip-rule="evenodd" d="M16.375 46.5C19.4816 46.5 22 49.0184 22 52.125C22 55.2316 19.4816 57.75 16.375 57.75C13.2684 57.75 10.75 55.2316 10.75 52.125C10.75 49.0184 13.2684 46.5 16.375 46.5ZM16.375 49C14.6491 49 13.25 50.3991 13.25 52.125C13.25 53.8509 14.6491 55.25 16.375 55.25C18.1009 55.25 19.5 53.8509 19.5 52.125C19.5 50.3991 18.1009 49 16.375 49Z" fill="white"/>
</g>
</g>
<defs>
<filter id="filter0_d_104_17108" x="0" y="0" width="109" height="74" filterUnits="userSpaceOnUse" color-interpolation-filters="sRGB">
<feFlood flood-opacity="0" result="BackgroundImageFix"/>
<feColorMatrix in="SourceAlpha" type="matrix" values="0 0 0 0 0 0 0 0 0 0 0 0 0 0 0 0 0 0 127 0" result="hardAlpha"/>
<feOffset dy="3"/>
<feGaussianBlur stdDeviation="1"/>
<feComposite in2="hardAlpha" operator="out"/>
<feColorMatrix type="matrix" values="0 0 0 0 0 0 0 0 0 0 0 0 0 0 0 0 0 0 0.25 0"/>
<feBlend mode="normal" in2="BackgroundImageFix" result="effect1_dropShadow_104_17108"/>
<feBlend mode="normal" in="SourceGraphic" in2="effect1_dropShadow_104_17108" result="shape"/>
</filter>
<filter id="filter1_d_104_17108" x="6.75" y="42.5" width="19.25" height="19.25" filterUnits="userSpaceOnUse" color-interpolation-filters="sRGB">
<feFlood flood-opacity="0" result="BackgroundImageFix"/>
<feColorMatrix in="SourceAlpha" type="matrix" values="0 0 0 0 0 0 0 0 0 0 0 0 0 0 0 0 0 0 127 0" result="hardAlpha"/>
<feOffset/>
<feGaussianBlur stdDeviation="2"/>
<feComposite in2="hardAlpha" operator="out"/>
<feColorMatrix type="matrix" values="0 0 0 0 0 0 0 0 0 0 0 0 0 0 0 0 0 0 0.25 0"/>
<feBlend mode="normal" in2="BackgroundImageFix" result="effect1_dropShadow_104_17108"/>
<feBlend mode="normal" in="SourceGraphic" in2="effect1_dropShadow_104_17108" result="shape"/>
</filter>
</defs>
</svg>
