<?xml version="1.0" encoding="UTF-8"?>
<svg width="24px" height="24px" viewBox="0 0 24 24" version="1.1" xmlns="http://www.w3.org/2000/svg" xmlns:xlink="http://www.w3.org/1999/xlink">
    <title>icon/i_a11ybus</title>
    <g id="icon/i_a11ybus" stroke="none" stroke-width="1" fill="none" fill-rule="evenodd">
        <g id="Group" transform="translate(2.000000, 0.000000)" fill="#2398A1" fill-rule="nonzero">
            <path d="M8.18236745,24 C11.247408,24 13.9158623,22.3159855 15.3150268,19.8394308 L14.3046828,17.5647446 C13.5666737,20.2277008 11.1030731,22.1919844 8.18236745,22.1919844 C4.67869891,22.1919844 1.82761676,19.3716935 1.82761676,15.9057969 C1.82761676,13.7889787 2.89606964,11.9169626 4.52659835,10.7782861 L4.37315888,8.75986873 C1.77834475,10.1188138 0,12.8084369 0,15.9057969 C0,20.3687687 3.67103271,24 8.18236745,24 Z" id="Path"></path>
            <path d="M5.79401376,13.3180413 C5.81891755,13.6444441 6.09205588,13.8964463 6.42062522,13.8964463 L13.8465066,13.8964463 L17.1059573,21.2338428 C17.2138738,21.4765116 17.4958489,21.5901126 17.7427445,21.4901117 L19.8330561,20.6434378 C20.2979268,20.4551695 20.5217932,19.9274316 20.3330064,19.4642276 C20.1439518,19.0007569 19.6134743,18.777555 19.148068,18.9658233 L18.2512638,19.3287598 L15.1717631,12.3988334 C15.086876,12.2073651 14.8964825,12.084164 14.6862731,12.084164 L7.90842577,12.084164 C7.69232515,12.084164 7.51291076,11.9182959 7.49657601,11.7038941 L7.37982277,10.1577474 L11.2332155,10.1577474 C11.7358436,10.1577474 12.143141,9.75187727 12.143141,9.2516063 C12.143141,8.75133532 11.7358436,8.34546516 11.2332155,8.34546516 L7.24218247,8.34546516 L6.93289348,4.27236341 C8.11086947,4.2672967 9.06497915,3.31422182 9.06497915,2.13607834 C9.06497915,0.817400317 7.86290272,-0.225542 6.48703533,0.0421936399 C5.6435199,0.206195053 4.96817199,0.888867599 4.81232247,1.73047485 C4.71833075,2.23794589 4.80509234,2.71955003 5.0190507,3.12782022 L5.79401376,13.3180413 Z" id="Path"></path>
        </g>
    </g>
</svg>