<?xml version="1.0" encoding="UTF-8"?>
<svg width="24px" height="24px" viewBox="0 0 24 24" version="1.1" xmlns="http://www.w3.org/2000/svg" xmlns:xlink="http://www.w3.org/1999/xlink">
    <title>icon/i_align</title>
    <g id="icon/i_align" stroke="none" stroke-width="1" fill="none" fill-rule="evenodd">
        <path d="M5.78457896,0 C6.23638714,0 6.60263671,0.365996635 6.60263671,0.818057751 L6.60263671,0.818057751 L6.60198335,21.2114557 L10.1725347,17.6414447 C10.4656545,17.3483249 10.9247078,17.3238983 11.2454832,17.5681648 L11.2454832,17.5681648 L11.3293104,17.6414447 C11.6490774,17.9612117 11.6490774,18.4784534 11.3293017,18.7982291 L11.3293017,18.7982291 L6.36371666,23.7631887 C6.28826301,23.8394625 6.19804657,23.8996068 6.09780274,23.9411704 C5.99821756,23.9828003 5.89167386,24.0042339 5.78457896,24.0042339 C5.67706948,24.0042339 5.57113263,23.9828807 5.47188122,23.9413894 C5.37154965,23.8997885 5.28156055,23.8399334 5.20556979,23.7639427 L5.20556979,23.7639427 L0.239847503,18.7982204 C-0.0799194958,18.4784534 -0.0799194958,17.9612117 0.239669509,17.6416229 C0.558826084,17.321648 1.07682647,17.321648 1.39662318,17.6414447 L1.39662318,17.6414447 L4.96624716,21.2114557 L4.96652121,0.818057751 C4.96652121,0.400770567 5.27859185,0.0568164319 5.68196209,0.00636956605 L5.68196209,0.00636956605 Z M23.1819422,20.5042328 C23.6341875,20.5042328 24,20.8700453 24,21.3222906 C24,21.7745358 23.6341875,22.1403483 23.1819422,22.1403483 L23.1819422,22.1403483 L18.2112493,22.1403483 C17.759004,22.1403483 17.3931915,21.7745358 17.3931915,21.3222906 C17.3931915,20.8700453 17.759004,20.5042328 18.2112493,20.5042328 L18.2112493,20.5042328 Z M23.1819422,14.2908666 C23.6341875,14.2908666 24,14.6566791 24,15.1089243 C24,15.5611696 23.6341875,15.9269821 23.1819422,15.9269821 L23.1819422,15.9269821 L15.7259028,15.9269821 C15.2736576,15.9269821 14.907845,15.5611696 14.907845,15.1089243 C14.907845,14.6566791 15.2736576,14.2908666 15.7259028,14.2908666 L15.7259028,14.2908666 Z M23.1819422,8.07750036 C23.6341875,8.07750036 24,8.44331288 24,8.89555811 C24,9.34780334 23.6341875,9.71361586 23.1819422,9.71361586 L23.1819422,9.71361586 L13.2405563,9.71361586 C12.7887481,9.71361586 12.4224985,9.34761922 12.4224985,8.89555811 C12.4224985,8.44349699 12.7887481,8.07750036 13.2405563,8.07750036 L13.2405563,8.07750036 Z M23.1819422,1.86413413 C23.6341875,1.86413413 24,2.22994665 24,2.68219189 C24,3.13443712 23.6341875,3.50024964 23.1819422,3.50024964 L23.1819422,3.50024964 L10.7552098,3.50024964 C10.3034016,3.50024964 9.93715205,3.134253 9.93715205,2.68219189 C9.93715205,2.23013077 10.3034016,1.86413413 10.7552098,1.86413413 L10.7552098,1.86413413 Z" id="Combined-Shape" fill="#4A4A4A"></path>
    </g>
</svg>