<?xml version="1.0" encoding="UTF-8"?>
<svg width="24px" height="24px" viewBox="0 0 24 24" version="1.1" xmlns="http://www.w3.org/2000/svg" xmlns:xlink="http://www.w3.org/1999/xlink">
    <title>icon/i_back</title>
    <g id="icon/i_back" stroke="none" stroke-width="1" fill="none" fill-rule="evenodd">
        <path d="M5.21756546,0.422824738 C4.89844653,0.842066936 4.93039063,1.44276564 5.31371984,1.82511448 L15.4977516,12.0000417 L5.31344321,22.1753316 C4.89554252,22.5921633 4.89554252,23.2691255 5.3133017,23.6868847 C5.51607649,23.8896595 5.78783586,24 6.06900751,24 C6.35017916,24 6.62193853,23.8896595 6.82471332,23.6868847 L17.7556621,12.7656524 C17.9628924,12.5573836 18.0713195,12.2804299 18.0673093,11.9934537 C18.0713195,11.7197401 17.9628924,11.4427864 17.7566241,11.2354816 L6.82456817,0.313140179 C6.40702382,-0.104404237 5.7309912,-0.104404237 5.3133017,0.313285259 L5.21756546,0.422824738 Z" id="Fill-4" fill="#4A4A4A" transform="translate(11.533708, 12.000000) scale(-1, -1) translate(-11.533708, -12.000000) "></path>
    </g>
</svg>