<?xml version="1.0" encoding="UTF-8"?>
<svg width="24px" height="24px" viewBox="0 0 24 24" version="1.1" xmlns="http://www.w3.org/2000/svg" xmlns:xlink="http://www.w3.org/1999/xlink">
    <title>icon/i_bus</title>
    <g id="icon/i_bus" stroke="none" stroke-width="1" fill="none" fill-rule="evenodd">
        <path d="M11.7893077,0 C6.38426604,0.00348375339 2.00348375,4.38426604 2,9.78930775 C2.00258565,10.0005052 2.01734674,10.2113779 2.04420978,10.420876 L2.04420978,10.6229778 C2.04420978,10.7682385 2.09473524,10.9134992 2.13262933,11.0650756 C2.17052343,11.216652 2.16420774,11.216652 2.18315479,11.2924402 C2.20210184,11.3682284 2.26525866,11.5892772 2.32841549,11.7976948 L2.37894095,11.9492711 C2.44841345,12.151373 2.51788596,12.3534748 2.61893688,12.5808394 C2.7199878,12.8082039 2.80840735,13.0229371 2.91577395,13.2503017 L3.01682487,13.4524036 L3.2568208,13.9197641 L3.38945013,14.1534443 C3.471554,14.3113364 3.55997356,14.4629127 3.64839311,14.6144891 L3.78102244,14.8292223 C3.89470473,15.0250085 4.02101837,15.2207946 4.14733202,15.4165808 L4.1915418,15.4860533 C4.58311411,16.1176215 5.04415893,16.7491898 5.54309784,17.380758 C5.55769626,17.3960306 5.57041777,17.4129927 5.58099193,17.4312835 L7.10938708,19.3259882 L7.57674758,19.8628212 L8.03779239,20.3870228 L11.1577395,23.6585463 L11.208265,23.7090718 L11.3345786,23.8290698 C11.4573688,23.9442465 11.621062,24.0056314 11.7893077,23.9995932 C11.9612104,23.9983315 12.1269885,23.9356047 12.2566682,23.8227541 C12.284542,23.7917238 12.3140575,23.7622083 12.3450878,23.7343345 L12.976656,23.1027663 L13.0208658,23.0585565 L15.9955522,19.9007153 L16.4629127,19.3638823 L16.5892264,19.2123059 L16.9302732,18.7954709 L18.0165706,17.4312835 C18.5281409,16.7618211 18.9891857,16.1113059 19.3554953,15.5365788 L19.3554953,15.5365788 L19.4186521,15.4418435 C19.5449658,15.2397417 19.6712794,15.0439555 19.7849617,14.8481694 L19.9112753,14.6334362 C20.0060106,14.4818598 20.0944301,14.3302834 20.176534,14.1723913 L20.3028477,13.9387111 C20.3912672,13.7871347 20.4670554,13.6292427 20.5491593,13.4713506 L20.6312631,13.2629331 C20.7323141,13.0418842 20.833365,12.8208353 20.9407316,12.5618923 C21.0480982,12.3029494 21.0986236,12.151373 21.1680961,11.9303241 L21.231253,11.7282223 C21.2817784,11.5703302 21.3259882,11.4250695 21.3638823,11.2734931 L21.4207234,11.0461286 C21.4523019,10.8945522 21.4775646,10.7492915 21.509143,10.5471896 L21.509143,10.4019289 C21.536006,10.1924309 21.5507671,9.98155818 21.5533528,9.7703607 C21.5394856,4.38255721 17.1771012,0.0173510175 11.7893077,0 Z" id="Shape-Copy" fill="#2398A1"></path>
        <g id="noun_Bus_2558229" transform="translate(6.000000, 4.000000)" fill="#FFFFFF">
            <path d="M11.4422789,3.08605697 C11.4239823,3.08630019 11.4058118,3.08912672 11.3883058,3.09445277 L11.3883058,1.64797601 C11.388407,1.57936898 11.3807624,1.51096982 11.3655172,1.44407796 C11.3664369,1.42969985 11.3664369,1.41527766 11.3655172,1.40089955 C11.3691154,0.628485757 8.96431784,0 5.9970015,0 C3.02968516,0 0.624887556,0.628485757 0.624887556,1.40209895 C0.623967929,1.41647706 0.623967929,1.43089925 0.624887556,1.44527736 C0.60892429,1.51168657 0.600475459,1.57967954 0.59970015,1.64797601 L0.59970015,3.09445277 C0.582194227,3.08912672 0.564023722,3.08630019 0.545727136,3.08605697 C0.247076462,3.08605697 0,3.81889055 0,4.72203898 C0,5.62518741 0.247076462,6.35922039 0.551724138,6.35922039 C0.568004987,6.35844513 0.584123591,6.35562437 0.59970015,6.35082459 L0.59970015,9.62518741 C0.601018454,10.1373461 1.01587731,10.5522049 1.52803598,10.5535232 L1.68635682,10.5535232 C1.68635682,10.5607196 1.68635682,10.567916 1.68635682,10.5751124 L1.68635682,11.122039 C1.68701674,11.456945 1.95834739,11.7282756 2.29325337,11.7289355 L2.87856072,11.7289355 C3.21065299,11.7243506 3.47763744,11.4541623 3.47826087,11.122039 L3.47826087,10.5751124 C3.47826087,10.567916 3.47826087,10.5607196 3.47826087,10.5535232 L8.51574213,10.5535232 C8.51574213,10.5607196 8.51574213,10.567916 8.51574213,10.5751124 L8.51574213,11.122039 C8.51571043,11.4546295 8.78288349,11.725543 9.11544228,11.7301349 L9.69235382,11.7301349 C10.0272598,11.729475 10.2985905,11.4581444 10.2992504,11.1232384 L10.2992504,10.5751124 C10.2992504,10.567916 10.2992504,10.5607196 10.2992504,10.5535232 L10.4575712,10.5535232 C10.7050396,10.5551186 10.9429546,10.4580934 11.1187308,10.2838927 C11.2945069,10.1096919 11.3936702,9.87266014 11.3943028,9.62518741 L11.3943028,6.35082459 C11.4118088,6.35615064 11.4299793,6.35897717 11.4482759,6.35922039 C11.7529235,6.35922039 12,5.62638681 12,4.72323838 C12,3.82008996 11.7469265,3.08605697 11.4422789,3.08605697 Z M3.94482759,0.71964018 L8.04917541,0.71964018 C8.23729999,0.71964018 8.3898051,0.872145285 8.3898051,1.06026987 C8.3898051,1.24839445 8.23729999,1.40089955 8.04917541,1.40089955 L3.94482759,1.40089955 C3.75670301,1.40089955 3.6041979,1.24839445 3.6041979,1.06026987 C3.6041979,0.872145285 3.75670301,0.71964018 3.94482759,0.71964018 Z M2.57991004,9.6095952 C2.31358348,9.6095952 2.07348115,9.44916395 1.97156238,9.20311029 C1.86964362,8.95705663 1.92597958,8.67383661 2.1143009,8.48551529 C2.30262222,8.29719398 2.58584224,8.24085801 2.8318959,8.34277678 C3.07794956,8.44469554 3.23838081,8.68479787 3.23838081,8.95112444 C3.23838081,9.3147878 2.94357341,9.6095952 2.57991004,9.6095952 Z M9.41649175,9.60959958 C9.15016519,9.60959958 8.91006286,9.44916395 8.80814409,9.20311029 C8.70622533,8.95705663 8.76256129,8.67383661 8.95088261,8.48551529 C9.13920393,8.29719398 9.42242395,8.24085801 9.66847761,8.34277678 C9.91453127,8.44469554 10.0749625,8.68479787 10.0749625,8.95112444 C10.0749625,9.12617816 10.0052601,9.29402733 9.88125357,9.41758374 C9.75724704,9.54114015 9.58914551,9.61023292 9.41409295,9.60959958 L9.41649175,9.60959958 Z M10.4071964,6.77181409 C10.4058802,7.15745291 10.0935848,7.46974828 9.70794603,7.47106447 L2.28725637,7.47106447 C1.90161755,7.46974828 1.58932218,7.15745291 1.588006,6.77181409 L1.588006,2.67346327 C1.58932218,2.28782445 1.90161755,1.97552908 2.28725637,1.97421289 L9.70674663,1.97421289 C10.0923854,1.97552908 10.4046808,2.28782445 10.405997,2.67346327 L10.405997,6.77181409 L10.4071964,6.77181409 Z" id="Shape"></path>
        </g>
    </g>
</svg>