<?xml version="1.0" encoding="UTF-8"?>
<svg width="12px" height="12px" viewBox="0 0 12 12" version="1.1" xmlns="http://www.w3.org/2000/svg" xmlns:xlink="http://www.w3.org/1999/xlink">
    <title>icon/i_close</title>
    <g id="icon/i_close" stroke="none" stroke-width="1" fill="none" fill-rule="evenodd">
        <g id="Group" transform="translate(6.000000, 6.000000) rotate(45.000000) translate(-6.000000, -6.000000) translate(-1.000000, -1.000000)" fill="#919191">
            <path d="M7.16666667,-1.06962382e-13 C7.71895142,-1.07063835e-13 8.16666667,0.44771525 8.16666667,1 L8.166,5.833 L13,5.83333333 C13.5522847,5.83333333 14,6.28104858 14,6.83333333 L14,7.16666667 C14,7.71895142 13.5522847,8.16666667 13,8.16666667 L8.166,8.166 L8.16666667,13 C8.16666667,13.5522847 7.71895142,14 7.16666667,14 L6.83333333,14 C6.28104858,14 5.83333333,13.5522847 5.83333333,13 L5.833,8.166 L1,8.16666667 C0.44771525,8.16666667 -3.96161839e-14,7.71895142 -3.90176855e-14,7.16666667 L-3.90176855e-14,6.83333333 C-3.90853209e-14,6.28104858 0.44771525,5.83333333 1,5.83333333 L5.833,5.833 L5.83333333,1 C5.83333333,0.44771525 6.28104858,-1.07284607e-13 6.83333333,-1.06941971e-13 L7.16666667,-1.06962382e-13 Z" id="Combined-Shape"></path>
        </g>
    </g>
</svg>