<?xml version="1.0" encoding="UTF-8"?>
<svg width="24px" height="24px" viewBox="0 0 24 24" version="1.1" xmlns="http://www.w3.org/2000/svg" xmlns:xlink="http://www.w3.org/1999/xlink">
    <title>icon/i_down</title>
    <g id="icon/i_down" stroke="none" stroke-width="1" fill="none" fill-rule="evenodd">
        <path d="M5.68385713,0.422824738 C5.36473819,0.842066936 5.3966823,1.44276564 5.78001151,1.82511448 L15.9640433,12.0000417 L5.77973488,22.1753316 C5.36183419,22.5921633 5.36183419,23.2691255 5.77959337,23.6868847 C5.98236816,23.8896595 6.25412753,24 6.53529918,24 C6.81647083,24 7.0882302,23.8896595 7.29100498,23.6868847 L18.2219538,12.7656524 C18.4291841,12.5573836 18.5376112,12.2804299 18.533601,11.9934537 C18.5376112,11.7197401 18.4291841,11.4427864 18.2229158,11.2354816 L7.29085984,0.313140179 C6.87331549,-0.104404237 6.19728287,-0.104404237 5.77959337,0.313285259 L5.68385713,0.422824738 Z" id="Fill-4" fill="#4A4A4A" transform="translate(12.000000, 12.000000) scale(-1, 1) rotate(90.000000) translate(-12.000000, -12.000000) "></path>
    </g>
</svg>