<?xml version="1.0" encoding="UTF-8"?>
<svg width="24px" height="24px" viewBox="0 0 24 24" version="1.1" xmlns="http://www.w3.org/2000/svg" xmlns:xlink="http://www.w3.org/1999/xlink">
    <title>icon/i_favoraite_menu_s</title>
    <g id="icon/i_favoraite_menu_s" stroke="none" stroke-width="1" fill="none" fill-rule="evenodd">
        <circle id="Oval" fill="#FFB13E" opacity="0.3" cx="12" cy="12" r="9"></circle>
        <path d="M3.82425369,6.22979351 C7.00104722,1.72604119 13.2493483,0.647859406 17.7535449,3.8242087 C17.9538992,3.96592274 18.0014334,4.24313141 17.8601636,4.44392999 C17.7184495,4.64428433 17.4416851,4.69226276 17.2404423,4.55099295 C13.1373987,1.65629478 7.44395914,2.63985244 4.54926096,6.74289609 C1.65500703,10.8459397 2.63812045,16.5393792 6.74205259,19.4345217 C10.8455405,22.3287756 16.5385357,21.3447737 19.4332339,17.24173 C21.6073673,14.1600049 21.6717827,10.1329271 19.5980487,6.98323245 C19.4625541,6.77843566 19.5198616,6.50300397 19.7246584,6.3679536 C19.9294552,6.23290322 20.2053311,6.29021078 20.3399373,6.49411908 C22.6166911,9.95123099 22.5465005,14.3710211 20.1604624,17.7534999 C18.2160036,20.510038 15.1200626,21.9835975 11.9783643,21.9835975 C9.9872598,21.9835975 7.97749698,21.3918636 6.23028274,20.1595289 C1.72653042,16.9827354 0.64746015,10.7339901 3.82425369,6.22979351 Z M20.4940902,4.36396595 C20.6802287,4.35463682 20.8668114,4.47991381 20.9294499,4.66560808 C20.9929769,4.85130234 20.925896,5.05609913 20.7664121,5.16982576 C17.3150754,7.62516598 14.4830157,10.7251052 12.3488644,14.3852369 C12.2702331,14.5202873 12.1271863,14.603361 11.9712564,14.6055823 L11.9712564,14.6055823 C11.8117726,14.6055823 11.6691701,14.5265067 11.5878733,14.3958988 C10.4643786,12.587823 9.08810862,10.9538912 7.49771275,9.53808346 C7.18851847,9.26309602 7.04769291,8.84017511 7.13032242,8.43457974 C7.25604365,7.81796816 7.86599157,7.39504724 8.50570387,7.52476668 C9.88286231,7.80641779 11.1245261,8.56563191 12.0041305,9.64825614 C13.04544,7.85350773 14.6007406,6.36662086 16.4483541,5.41638154 C17.6949046,4.77533651 19.093831,4.41105589 20.4940902,4.36396595 Z" id="Combined-Shape" fill="#FFFFFF"></path>
        <path d="M18.9010288,5.46258299 C16.1391598,7.66381526 13.8086523,10.2981861 11.9512654,13.3190497 C10.8593121,11.6793427 9.56256191,10.1862364 8.08811389,8.87438195 C8.01436928,8.80952223 7.98105093,8.70823445 8.00104194,8.61183336 C8.02725238,8.48300241 8.14097901,8.38971103 8.27203118,8.38971103 C8.29068946,8.38971103 8.30934773,8.39148801 8.32800601,8.39548621 C9.71138387,8.67802581 10.9339452,9.52564461 11.6820532,10.722884 C11.7673481,10.8597113 11.9157259,10.9418966 12.0814291,10.9307905 C12.2426899,10.9227941 12.3866252,10.8286142 12.4577043,10.6833462 C13.3981703,8.77131719 14.9601345,7.18136556 16.8548379,6.20624854 C17.5007697,5.87439779 18.1906816,5.62428804 18.9010288,5.46258299 Z" id="Path" fill="#FFB13E"></path>
    </g>
</svg>