<?xml version="1.0" encoding="UTF-8"?>
<svg width="24px" height="24px" viewBox="0 0 24 24" version="1.1" xmlns="http://www.w3.org/2000/svg" xmlns:xlink="http://www.w3.org/1999/xlink">
    <title>icon/i_love_s</title>
    <g id="icon/i_love_s" stroke="none" stroke-width="1" fill="none" fill-rule="evenodd">
        <path d="M6.23111426,1 C4.63067973,1 3.03122966,1.6395216 1.81833644,2.91317178 C-0.607542488,5.46042291 -0.604681383,9.54528116 1.81833644,12.0944735 L11.5476321,22.3332921 C11.6638597,22.4561644 11.8255377,22.5257804 11.9946721,22.5257804 C12.1638066,22.5257804 12.3254845,22.4561644 12.4417121,22.3332921 C15.6884204,18.9240545 18.9338981,15.5133711 22.1806371,12.1041028 C24.6064543,9.55678711 24.6064543,5.47008299 22.1806371,2.92278571 C19.7547583,0.375494584 15.7808987,0.375433055 13.3550507,2.92278571 L11.9994714,4.3360332 L10.6439228,2.91317178 C9.43096809,1.63952468 7.83154879,1 6.23111426,1 L6.23111426,1 Z" id="Shape" fill="#2398A1"></path>
    </g>
</svg>