<?xml version="1.0" encoding="UTF-8"?>
<svg width="24px" height="24px" viewBox="0 0 24 24" version="1.1" xmlns="http://www.w3.org/2000/svg" xmlns:xlink="http://www.w3.org/1999/xlink">
    <title>icon/i_location</title>
    <g id="icon/i_location" stroke="none" stroke-width="1" fill="none" fill-rule="evenodd">
        <path d="M11.7893077,0 C6.38426604,0.00348375339 2.00348375,4.38426604 2,9.78930775 C2.00258565,10.0005052 2.01734674,10.2113779 2.04420978,10.420876 L2.04420978,10.6229778 C2.04420978,10.7682385 2.09473524,10.9134992 2.13262933,11.0650756 C2.17052343,11.216652 2.16420774,11.216652 2.18315479,11.2924402 C2.20210184,11.3682284 2.26525866,11.5892772 2.32841549,11.7976948 L2.37894095,11.9492711 C2.44841345,12.151373 2.51788596,12.3534748 2.61893688,12.5808394 C2.7199878,12.8082039 2.80840735,13.0229371 2.91577395,13.2503017 L3.01682487,13.4524036 L3.2568208,13.9197641 L3.38945013,14.1534443 C3.471554,14.3113364 3.55997356,14.4629127 3.64839311,14.6144891 L3.78102244,14.8292223 C3.89470473,15.0250085 4.02101837,15.2207946 4.14733202,15.4165808 L4.1915418,15.4860533 C4.58311411,16.1176215 5.04415893,16.7491898 5.54309784,17.380758 C5.55769626,17.3960306 5.57041777,17.4129927 5.58099193,17.4312835 L7.10938708,19.3259882 L7.57674758,19.8628212 L8.03779239,20.3870228 L11.1577395,23.6585463 L11.208265,23.7090718 L11.3345786,23.8290698 C11.4573688,23.9442465 11.621062,24.0056314 11.7893077,23.9995932 C11.9612104,23.9983315 12.1269885,23.9356047 12.2566682,23.8227541 C12.284542,23.7917238 12.3140575,23.7622083 12.3450878,23.7343345 L12.976656,23.1027663 L13.0208658,23.0585565 L15.9955522,19.9007153 L16.4629127,19.3638823 L16.5892264,19.2123059 L16.9302732,18.7954709 L18.0165706,17.4312835 C18.5281409,16.7618211 18.9891857,16.1113059 19.3554953,15.5365788 L19.3554953,15.5365788 L19.4186521,15.4418435 C19.5449658,15.2397417 19.6712794,15.0439555 19.7849617,14.8481694 L19.9112753,14.6334362 C20.0060106,14.4818598 20.0944301,14.3302834 20.176534,14.1723913 L20.3028477,13.9387111 C20.3912672,13.7871347 20.4670554,13.6292427 20.5491593,13.4713506 L20.6312631,13.2629331 C20.7323141,13.0418842 20.833365,12.8208353 20.9407316,12.5618923 C21.0480982,12.3029494 21.0986236,12.151373 21.1680961,11.9303241 L21.231253,11.7282223 C21.2817784,11.5703302 21.3259882,11.4250695 21.3638823,11.2734931 L21.4207234,11.0461286 C21.4523019,10.8945522 21.4775646,10.7492915 21.509143,10.5471896 L21.509143,10.4019289 C21.536006,10.1924309 21.5507671,9.98155818 21.5533528,9.7703607 C21.5394856,4.38255721 17.1771012,0.0173510175 11.7893077,0 Z" id="Shape" fill="#FFB13E" fill-rule="nonzero"></path>
    </g>
</svg>