<svg width="20" height="20" viewBox="0 0 20 20" fill="none" xmlns="http://www.w3.org/2000/svg">
<path fill-rule="evenodd" clip-rule="evenodd" d="M9 15C9.55229 15 10 15.3582 10 15.8C10 16.2418 9.55229 16.6 9 16.6H1C0.447715 16.6 0 16.2418 0 15.8C0 15.3582 0.447715 15 1 15H9ZM14 9C14.5523 9 15 9.35817 15 9.8C15 10.2418 14.5523 10.6 14 10.6H1C0.447715 10.6 0 10.2418 0 9.8C0 9.35817 0.447715 9 1 9H14ZM19 3C19.5523 3 20 3.35817 20 3.8C20 4.24183 19.5523 4.6 19 4.6H1C0.447715 4.6 0 4.24183 0 3.8C0 3.35817 0.447715 3 1 3H19Z" fill="#4A4A4A"/>
</svg>
