<?xml version="1.0" encoding="UTF-8"?>
<svg width="24px" height="24px" viewBox="0 0 24 24" version="1.1" xmlns="http://www.w3.org/2000/svg" xmlns:xlink="http://www.w3.org/1999/xlink">
    <title>icon/i_next</title>
    <g id="icon/i_next" stroke="none" stroke-width="1" fill="none" fill-rule="evenodd">
        <path d="M5.21760848,0.422824738 C4.89842645,0.842066936 4.93037687,1.44276564 5.31378186,1.82511448 L15.499827,12.0000417 L5.31350518,22.1753316 C4.89552187,22.5921633 4.89552187,23.2691255 5.31336364,23.6868847 C5.51617851,23.8896595 5.78799161,24 6.06921884,24 C6.35044608,24 6.62225917,23.8896595 6.82507405,23.6868847 L17.7581838,12.7656524 C17.9654551,12.5573836 18.0739037,12.2804299 18.0698926,11.9934537 C18.0739037,11.7197401 17.9654551,11.4427864 17.759146,11.2354816 L6.82492888,0.313140179 C6.40730198,-0.104404237 5.73113571,-0.104404237 5.31336364,0.313285259 L5.21760848,0.422824738 Z" id="Fill-4" fill="#4A4A4A" transform="translate(11.535000, 12.000000) scale(1, -1) translate(-11.535000, -12.000000) "></path>
    </g>
</svg>