<?xml version="1.0" encoding="UTF-8"?>
<svg width="24px" height="24px" viewBox="0 0 24 24" version="1.1" xmlns="http://www.w3.org/2000/svg" xmlns:xlink="http://www.w3.org/1999/xlink">
    <title>icon/i_reset</title>
    <g id="icon/i_reset" stroke="none" stroke-width="1" fill="none" fill-rule="evenodd">
        <g id="noun_update_4147687" transform="translate(0.000000, -0.000000)" fill="#2398A1" fill-rule="nonzero">
            <path d="M12.0384069,23.7184362 C8.13427585,23.7184362 4.47934463,21.807904 2.15347931,18.6513724 C-1.58451853,13.3351089 -0.338519249,5.9421798 4.97774434,2.20418197 C5.06081096,2.20418197 5.06081096,2.12111535 5.14387758,2.12111535 C10.6262744,-1.61688249 18.0192035,-0.287816592 21.8402679,5.11151362 C22.0894678,5.52684671 22.0064012,6.02524642 21.6741347,6.27444628 C21.2588016,6.52364613 20.7604019,6.44057951 20.511202,6.10831304 C17.1885373,1.37351578 10.7924076,0.21058312 6.05761038,3.45018125 C1.40587974,6.60671275 0.242947081,12.9197758 3.39947859,17.5715064 C3.39947859,17.5715064 3.48254521,17.654573 3.48254521,17.654573 C6.80520995,22.3063037 13.2013396,23.3861697 17.9361368,20.1465716 C20.0958689,18.6513724 21.5910681,16.4085737 22.0894678,13.8335086 C22.1725344,13.3351089 22.6709341,13.085909 23.0862672,13.1689756 C23.5846669,13.2520422 23.8338668,13.750442 23.7508001,14.165775 C23.0862672,17.1561733 21.3418682,19.7312385 18.8498696,21.4756375 C16.8562708,22.9708366 14.4473389,23.7184362 12.0384069,23.7184362 Z" id="Path"></path>
            <path d="M23.5016003,3.78244772 L21.0926683,5.52684671 L18.6837364,7.2712457 C18.4345366,7.43737894 18.5176032,7.76964541 18.766803,7.76964541 L20.6773353,8.10191189 L22.920134,8.51724498 C23.0862672,8.51724498 23.2524004,8.43417836 23.2524004,8.26804512 L23.6677335,5.9421798 L24,4.03164758 C24,3.78244772 23.7508001,3.61631448 23.5016003,3.78244772 Z" id="Path"></path>
        </g>
        <path d="M9.27159495,6.9 C10.1430908,6.9 10.9744364,7.24455331 11.6013086,7.86442265 C12.2897725,7.18544652 13.0766712,6.90513189 13.8629397,6.90499556 C14.6766335,6.90485448 15.4903555,7.20589806 16.1343889,7.81198222 C16.9141625,8.62329731 17.2352081,9.5040421 17.235217,10.383941 C17.2352259,11.2654941 16.9117602,12.1469455 16.2652206,12.8258675 L16.2652206,12.8258675 L12.4357603,16.8476478 C12.1987222,17.0965902 11.8816227,17.2209576 11.5645884,17.2207919 C11.247554,17.2206262 10.9305847,17.0959273 10.693807,16.8467371 L10.693807,16.8467371 L6.86908352,12.8215128 C6.22311534,12.1419069 5.89991138,11.2603558 5.90000002,10.3789623 C5.90008865,9.49768974 6.22337747,8.61676601 6.86962563,7.93818459 C7.50415968,7.27186509 8.36621278,6.9 9.27159495,6.9 Z" id="Shape" stroke="#2398A1" stroke-width="0.2" fill="#2398A1" stroke-linejoin="round"></path>
    </g>
</svg>