<?xml version="1.0" encoding="UTF-8"?>
<svg width="24px" height="24px" viewBox="0 0 24 24" version="1.1" xmlns="http://www.w3.org/2000/svg" xmlns:xlink="http://www.w3.org/1999/xlink">
    <title>icon/i_search_menu</title>
    <g id="icon/i_search_menu" stroke="none" stroke-width="1" fill="none" fill-rule="evenodd">
        <g id="noun_Search_2755675" transform="translate(2.000000, 2.000000)" fill="#FFFFFF">
            <path d="M11.9382902,0 C16.132068,0 19.5436235,3.41111111 19.5436235,7.60444444 C19.5436235,11.7977778 16.1334013,15.2088889 11.9387346,15.2088889 C10.5054013,15.2088889 9.16851242,14.8031111 8.02273464,14.1106667 L8.02273464,14.1106667 L2.87695686,19.4844444 C2.56851242,19.8071111 2.15295686,19.9897778 1.70673464,19.9995556 C1.69473464,20 1.68140131,20 1.66940131,20 C1.23651242,20 0.82762353,19.836 0.514290196,19.536 C-0.150598692,18.8995556 -0.174154248,17.8404444 0.463179085,17.1746667 L0.463179085,17.1746667 L5.60495686,11.8048889 C4.80406797,10.6 4.3342902,9.15644444 4.3342902,7.60444444 C4.3342902,3.41111111 7.74495686,0 11.9382902,0 Z M6.14851242,12.5222222 L1.10584575,17.7893333 C0.807179085,18.1008889 0.818734641,18.5964444 1.12940131,18.8942222 C1.28051242,19.0386667 1.4742902,19.1124444 1.68762353,19.1111289 C1.89562353,19.1066667 2.0902902,19.0208889 2.2342902,18.8702222 L2.2342902,18.8702222 L7.27962353,13.6017778 C6.86717909,13.28 6.48717909,12.9204444 6.14851242,12.5222222 L6.14851242,12.5222222 Z M11.9382902,0.888888889 C8.23517909,0.888888889 5.22317909,3.90133333 5.22317909,7.60444444 C5.22317909,11.3075556 8.23473464,14.32 11.9382902,14.32 C15.6414013,14.32 18.6542902,11.3071111 18.6542902,7.60444444 C18.6542902,3.90133333 15.6414013,0.888888889 11.9382902,0.888888889 Z M7.7382902,5.40533333 C8.79117909,3.39466667 11.1316235,2.40977778 13.3054013,3.06488889 C13.5405124,3.13555556 13.6742902,3.38355556 13.6031791,3.61911111 C13.532068,3.85377778 13.2854013,3.98755556 13.0494013,3.91644444 C11.2845124,3.38533333 9.38095686,4.184 8.52584575,5.81777778 C8.44584575,5.96933333 8.29117909,6.056 8.13162353,6.056 C8.0622902,6.056 7.99162353,6.04 7.92584575,6.00533333 C7.70806797,5.89111111 7.62362353,5.62266667 7.7382902,5.40533333 Z" id="Combined-Shape" transform="translate(9.771812, 10.000000) scale(-1, 1) translate(-9.771812, -10.000000) "></path>
        </g>
    </g>
</svg>