<?xml version="1.0" encoding="UTF-8"?>
<svg width="24px" height="24px" viewBox="0 0 24 24" version="1.1" xmlns="http://www.w3.org/2000/svg" xmlns:xlink="http://www.w3.org/1999/xlink">
    <title>icon/i_set_menu</title>
    <g id="icon/i_set_menu" stroke="none" stroke-width="1" fill="none" fill-rule="evenodd">
        <path d="M11.9580893,2.00041884 L12.126345,2.00273282 C13.4405435,2.0668507 14.482568,3.10276882 14.5898674,4.38032848 C15.2611423,4.60277827 15.8975232,4.90941003 16.4902864,5.29629819 C16.9190475,5.00929435 17.4154158,4.85750508 17.9327206,4.85750508 C18.7666892,4.85750508 19.5557317,5.26184028 20.0429404,5.93791316 C20.4485841,6.50145262 20.6112778,7.18886608 20.4996167,7.87366248 C20.4067112,8.44505311 20.1341012,8.95668762 19.7201701,9.34619283 C19.9644287,10.0100528 20.1223244,10.6996471 20.1894955,11.4036353 C20.8193337,11.6029677 21.3405641,12.0269309 21.6655153,12.6044279 C22.0052964,13.208968 22.0899146,13.910339 21.9023589,14.5785608 C21.590493,15.6969162 20.5606813,16.4772351 19.4013254,16.4772351 C19.2800684,16.4772351 19.157503,16.4685116 19.0366822,16.4510646 C18.6702943,17.0560407 18.2288842,17.6095481 17.7211752,18.1011186 C17.9571465,18.7174353 17.9501677,19.3895826 17.7015473,20.0045909 C17.440714,20.6479505 16.9443457,21.1504253 16.3053478,21.4212907 C15.9825775,21.5578138 15.6423602,21.6271658 15.2942917,21.6271658 C14.3630558,21.6271658 13.5177466,21.134723 13.0545276,20.3478614 C12.3544651,20.4381498 11.6434981,20.4381498 10.9447441,20.3478614 C10.4767272,21.1399571 9.62749241,21.6271658 8.7041077,21.6271658 C8.27403811,21.6271658 7.84527706,21.5181218 7.46536771,21.3113743 C6.85559359,20.9807529 6.41156637,20.431171 6.21397862,19.7660026 C6.0504126,19.2116228 6.07396611,18.6319448 6.27766032,18.1011186 C5.7699514,17.6095481 5.32854123,17.0573493 4.96215335,16.4515007 C4.84046023,16.4689478 4.71745858,16.4781075 4.59576547,16.4781075 C3.33608903,16.4781075 2.26091506,15.5760954 2.04020997,14.3329936 C1.81034519,13.0366784 2.5880471,11.7909596 3.80977622,11.4027629 C3.87781968,10.6983386 4.03440689,10.0087443 4.27910165,9.34532048 C3.26804556,8.38965875 3.18778917,6.7915097 4.11379093,5.73945306 C4.60710604,5.17896683 5.31850918,4.85794126 6.06567876,4.85794126 C6.58211121,4.85794126 7.08371367,5.0119114 7.50898532,5.29629819 C8.10174857,4.90941003 8.73900179,4.60277827 9.41027673,4.38032848 C9.52542721,2.99590569 10.7148793,1.93905111 12.126345,2.00273282 Z M11.9972369,2.87203169 C11.0755969,2.87203169 10.3192676,3.59390306 10.2747777,4.5146707 C10.2712883,4.57093741 10.2712883,4.62720412 10.2747777,4.68347083 C10.2839374,4.88542035 10.1535207,5.06774194 9.95942238,5.12357247 C9.16558197,5.3525649 8.42015709,5.71110161 7.74452039,6.19002292 C7.57920966,6.3069181 7.3563237,6.29514135 7.20453443,6.16167148 C6.88961532,5.88469968 6.48484395,5.73116571 6.06480641,5.73116571 C5.56800189,5.73116571 5.0960594,5.9444558 4.76805501,6.31695015 C4.13908914,7.03140652 4.20800495,8.12446371 4.9228975,8.75342958 C4.96477041,8.79006837 5.00795183,8.82496245 5.05331414,8.8568033 C5.21775252,8.97457084 5.28012569,9.19091416 5.20248635,9.37803369 C4.88625872,10.141778 4.70219242,10.9478313 4.65552158,11.7748211 C4.64461718,11.9767706 4.49544497,12.1442622 4.29611252,12.1795925 C3.84205325,12.260285 3.44644157,12.5132672 3.18255506,12.8909956 C2.91866854,13.2691602 2.81703952,13.7271451 2.89816827,14.1812044 C3.06173429,15.10677 3.96461872,15.7427146 4.899344,15.5795848 C4.95473836,15.5699889 5.00926036,15.557776 5.06291002,15.5425098 C5.25962542,15.4871155 5.46375581,15.5743507 5.56276777,15.7514382 C5.96317739,16.4754904 6.47960984,17.1219033 7.09549042,17.6732299 C7.24640734,17.8080083 7.28479083,18.0291495 7.18839592,18.2066732 C6.96769084,18.6118807 6.9192753,19.0781529 7.04969194,19.5208716 C7.18098093,19.9631541 7.47539976,20.3277973 7.88104349,20.54763 C8.1340256,20.6841531 8.41797621,20.7569945 8.70323535,20.7569945 C9.33787151,20.7569945 9.91973036,20.4111069 10.2220004,19.8541101 C10.2486071,19.8061307 10.273033,19.7550981 10.2944056,19.7031932 C10.3729173,19.5165098 10.5696327,19.4065935 10.7698375,19.4423599 C11.5793802,19.578883 12.4181468,19.578883 13.2276895,19.4423599 C13.2529878,19.4379982 13.2765413,19.4362535 13.3009671,19.4362535 C13.4745652,19.4362535 13.6337694,19.5383187 13.7022491,19.7018847 C13.9731144,20.3421911 14.5968462,20.7561222 15.2929831,20.7561222 C15.5237203,20.7561222 15.7500957,20.7107599 15.9642581,20.6195991 C16.3890936,20.4398946 16.7184065,20.1053475 16.8920046,19.6783312 C17.0656026,19.2513148 17.0621132,18.7824256 16.8824087,18.3575901 C16.8601637,18.3048128 16.836174,18.2537802 16.8091311,18.2044923 C16.7136086,18.0269686 16.751992,17.8066997 16.9020366,17.6727937 C17.5187895,17.1214671 18.0347858,16.4750542 18.4351954,15.751002 C18.5342074,15.5734783 18.7396463,15.4875517 18.934617,15.5420737 C19.0877148,15.5848189 19.2447382,15.6061915 19.4013254,15.6061915 C20.1716123,15.6061915 20.854664,15.0875782 21.06272,14.3447704 C21.3200638,13.4279283 20.7826949,12.4735751 19.8662891,12.2166674 C19.8126394,12.2018374 19.757245,12.1887522 19.702723,12.1795925 C19.5033906,12.1446984 19.3537822,11.9767706 19.343314,11.7748211 C19.2957708,10.9491398 19.1125768,10.1422141 18.7954769,9.37803369 C18.7174013,9.19178651 18.7793383,8.97544319 18.9437767,8.85723948 C19.3180158,8.58811886 19.5648914,8.18901777 19.638169,7.73408615 C19.7123189,7.27871835 19.6050196,6.82160584 19.3350266,6.44780297 C19.011384,5.99854163 18.4871004,5.73029336 17.9327206,5.73029336 C17.5698221,5.73029336 17.2213175,5.84369913 16.9255901,6.05655305 C16.8789193,6.08926625 16.8353017,6.12459651 16.7929926,6.16167148 C16.6420757,6.29557752 16.4178812,6.3069181 16.2534428,6.19002292 C15.5778061,5.71153779 14.8332536,5.3525649 14.0385408,5.12357247 C13.8440063,5.06730576 13.7140258,4.88498417 13.7231855,4.68259848 C13.768984,3.73173469 13.033155,2.92044723 12.0822912,2.87421257 L12.0822912,2.87421257 Z M12.0002901,8.42586136 C14.0756158,8.42586136 15.7640533,10.114735 15.7636172,12.1896245 C15.7636172,14.2653864 14.0751796,15.95426 12.0002901,15.95426 C9.92409212,15.95426 8.23565462,14.2653864 8.23565462,12.1896245 C8.23565462,10.114735 9.92409212,8.42586136 12.0002901,8.42586136 Z M12.0002901,9.29821347 C10.4056305,9.29821347 9.10800673,10.595401 9.10800673,12.1896245 C9.10800673,13.7842842 10.4056305,15.0819079 12.0002901,15.0819079 C13.5940774,15.0819079 14.8917012,13.7847203 14.8912651,12.1896245 C14.8912651,10.595401 13.5940774,9.29821347 12.0002901,9.29821347 Z" id="Combined-Shape" fill="#FFFFFF"></path>
    </g>
</svg>