<svg width="24" height="24" viewBox="0 0 24 24" fill="none" xmlns="http://www.w3.org/2000/svg">
<rect opacity="0.3" x="4" y="10" width="16" height="12" rx="2" fill="#FFB13E"/>
<path d="M17 6.5C17 8.70914 14.5 14.5 12.5 15.5C10 15 7.5 8.70914 7.5 6.5C7.5 4.29086 9.5 2.5 12 2C14.7614 2 17 4.29086 17 6.5Z" fill="#FFB13E"/>
<path fill-rule="evenodd" clip-rule="evenodd" d="M16.6711 9.58227H18.4874C19.6306 9.58227 20.557 10.5086 20.557 11.6519V19.9304C20.557 21.0736 19.6306 22 18.4874 22H6.06962C4.92636 22 4 21.0736 4 19.9304V11.6519C4 10.5086 4.92636 9.58227 6.06962 9.58227H7.88427C7.57879 8.78422 7.42398 8.18072 7.34699 7.76431C7.2402 7.17488 7.26586 6.88183 7.26918 6.85037C7.26669 4.1938 9.51513 2 12.2785 2C15.0418 2 17.2903 4.19463 17.2903 6.89176C17.2903 6.89176 17.3151 7.18399 17.2133 7.7461C17.1347 8.16913 16.979 8.77926 16.6711 9.58227ZM12.2785 2.73347C9.99445 2.73347 8.13593 4.592 8.13593 6.87603C8.13586 6.87778 8.13576 6.8799 8.13563 6.8824C8.13306 6.93557 8.12219 7.15996 8.19968 7.59957C8.39836 8.7064 9.14425 11.1419 11.9308 15.2125C12.0897 15.4434 12.4697 15.4434 12.6278 15.2125C14.1875 12.9342 15.1072 11.1684 15.6495 9.86374L15.6503 9.86125C16.0758 8.8372 16.2687 8.09628 16.3548 7.61696C16.4393 7.13929 16.4227 6.91328 16.4227 6.91328C16.421 4.592 14.5625 2.73347 12.2785 2.73347ZM4.82785 19.9304C4.82785 20.6158 5.38416 21.1722 6.06962 21.1722H18.4874C19.1728 21.1722 19.7291 20.6158 19.7291 19.9304V11.6519C19.7291 10.9664 19.1728 10.4101 18.4874 10.4101H16.3366C15.7555 11.7181 14.8233 13.421 13.3199 15.5585C13.0856 15.8913 12.6966 16.09 12.2793 16.09C11.8621 16.09 11.473 15.8913 11.2387 15.5585C9.73285 13.4193 8.8007 11.7156 8.21955 10.4101H6.06962C5.38416 10.4101 4.82785 10.9664 4.82785 11.6519V19.9304ZM14.7041 6.50765C14.7041 7.84545 13.6155 8.93325 12.2785 8.93325C10.9415 8.93325 9.8529 7.84463 9.8529 6.50765C9.8529 5.16985 10.9407 4.08205 12.2785 4.08205C13.6163 4.08205 14.7041 5.16985 14.7041 6.50765ZM13.8762 6.50765C13.8762 5.62682 13.1593 4.9099 12.2785 4.9099C11.3977 4.9099 10.6807 5.62682 10.6807 6.50765C10.6807 7.38848 11.3968 8.1054 12.2785 8.1054C13.1602 8.1054 13.8762 7.38848 13.8762 6.50765Z" fill="white"/>
</svg>
