<?xml version="1.0" encoding="UTF-8"?>
<svg width="24px" height="24px" viewBox="0 0 24 24" version="1.1" xmlns="http://www.w3.org/2000/svg" xmlns:xlink="http://www.w3.org/1999/xlink">
    <title>icon/i_zoomin</title>
    <g id="icon/i_zoomin" stroke="none" stroke-width="1" fill="none" fill-rule="evenodd">
        <g id="Group" fill="#4A4A4A">
            <path d="M11.0279518,0 C17.1081788,0 22.0546063,4.94707611 22.0546063,11.0279518 C22.0546063,13.8345596 20.991507,16.3920949 19.2577278,18.3399209 L19.2577278,18.3399209 L23.8097902,22.8919834 C24.0634033,23.1455964 24.0634033,23.5555285 23.8097902,23.8091416 C23.683308,23.9356238 23.5172596,23.9991892 23.3512111,23.9991892 C23.1851627,23.9991892 23.0191142,23.9356238 22.892632,23.8091416 L22.892632,23.8091416 L18.3405696,19.2577278 C16.3920949,20.9902098 13.8345596,22.053309 11.0279518,22.053309 C4.94707611,22.053309 0,17.1075302 0,11.0279518 C0,4.94707611 4.94707611,0 11.0279518,0 Z M11.0279518,1.29725347 C5.66186277,1.29725347 1.29725347,5.6625114 1.29725347,11.0279518 C1.29725347,16.3920949 5.66186277,20.7560555 11.0279518,20.7560555 C13.7054829,20.7560555 16.1332928,19.6683085 17.8943144,17.9131246 C17.8975575,17.9092328 17.8982061,17.9046924 17.9020979,17.9014493 C17.905341,17.8975575 17.9098814,17.8969089 17.9137732,17.8936658 C19.6696058,16.1326442 20.7573528,13.7048343 20.7573528,11.0279518 C20.7573528,5.6625114 16.3927435,1.29725347 11.0279518,1.29725347 Z M10.8,4.8 C11.3522847,4.8 11.8,5.24771525 11.8,5.8 L11.799,9.8 L15.8,9.8 C16.3522847,9.8 16.8,10.2477153 16.8,10.8 C16.8,11.3522847 16.3522847,11.8 15.8,11.8 L11.799,11.8 L11.8,15.8 C11.8,16.3522847 11.3522847,16.8 10.8,16.8 C10.2477153,16.8 9.8,16.3522847 9.8,15.8 L9.799,11.8 L5.8,11.8 C5.24771525,11.8 4.8,11.3522847 4.8,10.8 C4.8,10.2477153 5.24771525,9.8 5.8,9.8 L9.799,9.8 L9.8,5.8 C9.8,5.24771525 10.2477153,4.8 10.8,4.8 Z" id="Combined-Shape"></path>
        </g>
    </g>
</svg>