<?xml version="1.0" encoding="UTF-8"?>
<svg width="24px" height="24px" viewBox="0 0 24 24" version="1.1" xmlns="http://www.w3.org/2000/svg" xmlns:xlink="http://www.w3.org/1999/xlink">
    <title>icon/i_a11y</title>
    <g id="icon/i_a11y" stroke="none" stroke-width="1" fill="none" fill-rule="evenodd">
        <g id="Group" transform="translate(3.000000, 6.000000)" fill="#4A4A4A">
            <path d="M2,9 C3.1045,9 4,9.8955 4,11 C4,12.1045 3.1045,13 2,13 C0.8955,13 0,12.1045 0,11 C0,9.8955 0.8955,9 2,9 Z M9.5,9 C10.6045,9 11.5,9.8955 11.5,11 C11.5,12.1045 10.6045,13 9.5,13 C8.3955,13 7.5,12.1045 7.5,11 C7.5,9.8955 8.3955,9 9.5,9 Z M17,9 C18.1045,9 19,9.8955 19,11 C19,12.1045 18.1045,13 17,13 C15.8955,13 15,12.1045 15,11 C15,9.8955 15.8955,9 17,9 Z M2,0 C3.1045,0 4,0.8955 4,2 C4,3.1045 3.1045,4 2,4 C0.8955,4 0,3.1045 0,2 C0,0.8955 0.8955,0 2,0 Z M9.5,0 C10.6045,0 11.5,0.8955 11.5,2 C11.5,3.1045 10.6045,4 9.5,4 C8.3955,4 7.5,3.1045 7.5,2 C7.5,0.8955 8.3955,0 9.5,0 Z M17,0 C18.1045,0 19,0.8955 19,2 C19,3.1045 18.1045,4 17,4 C15.8955,4 15,3.1045 15,2 C15,0.8955 15.8955,0 17,0 Z" id="Combined-Shape"></path>
        </g>
    </g>
</svg>