<?xml version="1.0" encoding="UTF-8"?>
<svg width="24px" height="24px" viewBox="0 0 24 24" version="1.1" xmlns="http://www.w3.org/2000/svg" xmlns:xlink="http://www.w3.org/1999/xlink">
    <title>icon/i_contact</title>
    <g id="icon/i_contact" stroke="none" stroke-width="1" fill="none" fill-rule="evenodd">
        <g id="noun_Mail_3537879" transform="translate(0.000000, 2.000000)" fill="#2398A1" fill-rule="nonzero" stroke="#2398A1" stroke-width="0.4">
            <path d="M23.3066667,5.89333333 C23.3066667,5.89333333 23.3066667,5.89333333 23.3066667,5.89333333 L23.28,5.86666667 C23.0133333,5.65333333 22.72,5.49333333 22.4,5.38666667 L22.4,4.8 C22.4,3.81333333 21.7066667,2.96 20.8,2.74666667 L20.8,2.13333333 C20.8,0.96 19.84,0 18.6666667,0 L5.33333333,0 C4.16,0 3.2,0.96 3.2,2.13333333 L3.2,2.74666667 C2.29333333,2.98666667 1.6,3.81333333 1.6,4.8 L1.6,5.41333333 C1.28,5.49333333 0.986666667,5.65333333 0.72,5.89333333 C0.72,5.89333333 0.72,5.89333333 0.72,5.89333333 C0.72,5.89333333 0.72,5.89333333 0.693333333,5.89333333 C0.266666667,6.29333333 0,6.88 0,7.46666667 L0,18.6666667 C0,19.2533333 0.266666667,19.84 0.693333333,20.24 C0.693333333,20.24 0.72,20.2666667 0.72,20.2666667 C0.72,20.2666667 0.72,20.2666667 0.72,20.2666667 C1.12,20.6133333 1.6,20.8 2.13333333,20.8 L21.8666667,20.8 C22.3733333,20.8 22.88,20.6133333 23.28,20.2666667 C23.28,20.2666667 23.28,20.2666667 23.28,20.2666667 C23.28,20.2666667 23.3066667,20.24 23.3066667,20.24 C23.7333333,19.84 24,19.2533333 24,18.6666667 L24,7.46666667 C24,6.88 23.7333333,6.29333333 23.3066667,5.89333333 Z M4.26666667,2.13333333 C4.26666667,1.54666667 4.74666667,1.06666667 5.33333333,1.06666667 L18.6666667,1.06666667 C19.2533333,1.06666667 19.7333333,1.54666667 19.7333333,2.13333333 L19.7333333,2.66666667 L4.26666667,2.66666667 L4.26666667,2.13333333 Z M2.66666667,4.8 C2.66666667,4.21333333 3.14666667,3.73333333 3.73333333,3.73333333 L20.2666667,3.73333333 C20.8533333,3.73333333 21.3333333,4.21333333 21.3333333,4.8 L21.3333333,5.33333333 L2.66666667,5.33333333 L2.66666667,4.8 Z M2.13333333,6.4 L21.8666667,6.4 C21.8933333,6.4 21.92,6.4 21.9466667,6.4 L14.2666667,12.6666667 C14.2666667,12.6666667 14.2666667,12.6666667 14.2666667,12.6666667 L12,14.48 L9.73333333,12.64 C9.73333333,12.64 9.73333333,12.64 9.73333333,12.64 L2.05333333,6.4 C2.08,6.4 2.10666667,6.4 2.13333333,6.4 Z M1.06666667,18.6666667 L1.06666667,7.46666667 C1.06666667,7.33333333 1.09333333,7.17333333 1.14666667,7.06666667 L8.56,13.0666667 L1.14666667,19.0666667 C1.09333333,18.96 1.06666667,18.8 1.06666667,18.6666667 Z M21.8666667,19.7333333 L2.13333333,19.7333333 C2.10666667,19.7333333 2.08,19.7333333 2.05333333,19.7333333 L9.41333333,13.76 L11.68,15.6 C11.7866667,15.68 11.8933333,15.7066667 12.0266667,15.7066667 C12.16,15.7066667 12.2666667,15.68 12.3733333,15.6 L14.64,13.76 L21.9466667,19.7333333 C21.92,19.7333333 21.8933333,19.7333333 21.8666667,19.7333333 Z M22.9333333,18.6666667 C22.9333333,18.8 22.9066667,18.96 22.8533333,19.0666667 L15.44,13.0666667 L22.8533333,7.06666667 C22.9066667,7.2 22.9333333,7.33333333 22.9333333,7.46666667 L22.9333333,18.6666667 Z" id="Shape"></path>
        </g>
    </g>
</svg>