<?xml version="1.0" encoding="UTF-8"?>
<svg width="24px" height="24px" viewBox="0 0 24 24" version="1.1" xmlns="http://www.w3.org/2000/svg" xmlns:xlink="http://www.w3.org/1999/xlink">
    <title>icon/i_info</title>
    <g id="icon/i_info" stroke="none" stroke-width="1" fill="none" fill-rule="evenodd">
        <path d="M12,0 C18.6167841,0 24,5.38321591 24,12 C24,18.5065044 18.7947293,23.8202168 12.329792,23.9955332 L12,24 L11.670208,23.9955332 C5.20527072,23.8202168 0,18.5065044 0,12 C0,5.38321591 5.38321591,0 12,0 Z M12,1.59103641 L11.69357,1.59548286 C6.09520465,1.75814354 1.59103641,6.36297297 1.59103641,12 C1.59103641,17.7395184 6.26048157,22.4089636 12,22.4089636 C17.7395184,22.4089636 22.4089636,17.7395184 22.4089636,12 C22.4089636,6.36297297 17.9047954,1.75814354 12.30643,1.59548286 L12,1.59103641 Z M11.7647059,9.41176471 C12.4148631,9.41176471 12.9411765,9.92554679 12.9411765,10.5602241 L12.9411765,10.5602241 L12.9411765,17.2829132 C12.9411765,17.9175905 12.4148631,18.4313725 11.7647059,18.4313725 C11.1145486,18.4313725 10.5882353,17.9175905 10.5882353,17.2829132 L10.5882353,17.2829132 L10.5882353,10.5602241 C10.5882353,9.92554679 11.1145486,9.41176471 11.7647059,9.41176471 Z M11.7647059,5.88235294 C12.4141176,5.88235294 12.9411765,6.40941176 12.9411765,7.05882353 C12.9411765,7.70823529 12.4141176,8.23529412 11.7647059,8.23529412 C11.1152941,8.23529412 10.5882353,7.70823529 10.5882353,7.05882353 C10.5882353,6.40941176 11.1152941,5.88235294 11.7647059,5.88235294 Z" id="Combined-Shape" fill="#4A4A4A"></path>
    </g>
</svg>