<?xml version="1.0" encoding="UTF-8"?>
<svg width="24px" height="24px" viewBox="0 0 24 24" version="1.1" xmlns="http://www.w3.org/2000/svg" xmlns:xlink="http://www.w3.org/1999/xlink">
    <title>icon/i_love</title>
    <g id="icon/i_love" stroke="none" stroke-width="1" fill="none" fill-rule="evenodd">
        <path d="M6.58320747,1 C4.83712902,1 3.15739836,1.7131861 1.90937755,3.02372349 C-0.636841493,5.69733562 -0.635918505,9.97697852 1.90890247,12.6543167 L11.0443199,22.2681557 C11.290643,22.5285639 11.6348828,22.6767881 11.9949986,22.6767881 C12.3551145,22.6767881 12.6993542,22.5285639 12.9468224,22.2669479 L22.0896533,12.6638661 C24.6367815,9.98916347 24.6367815,5.70742549 22.0896578,3.03274697 L21.8890409,2.83076034 C19.3081206,0.339591348 15.2425729,0.406901544 12.7419738,3.03274937 L12.0011281,3.80450691 L11.2569617,3.02361368 C10.0089688,1.71317523 8.32926574,1 6.58320747,1 Z M6.58320747,2.46478867 C7.93015419,2.46478867 9.22595592,3.0149655 10.1963262,4.03388994 L11.9977044,5.92471973 L13.800902,4.04481164 C15.7918655,1.9541326 19.03971,1.95414821 21.0289183,4.04291406 C23.0373127,6.15188482 23.0373127,9.54470824 21.0289095,11.6537036 L11.9943675,21.1419709 L2.97067717,11.6452378 C0.963299417,9.53332924 0.962567986,6.14188186 2.97011657,4.03389108 C3.94043138,3.0149707 5.23624693,2.46478867 6.58320747,2.46478867 Z" id="Shape" fill="#2398A1"></path>
    </g>
</svg>