<?xml version="1.0" encoding="UTF-8"?>
<svg width="52px" height="60px" viewBox="0 0 52 60" version="1.1" xmlns="http://www.w3.org/2000/svg" xmlns:xlink="http://www.w3.org/1999/xlink">
    <title>Group</title>
    <defs>
        <path d="M0,0 L44,0 L44,30 C44,42.1502645 34.1502645,52 22,52 C9.8497355,52 1.48797825e-15,42.1502645 0,30 L0,0 L0,0 Z" id="path-1"></path>
        <filter x="-15.9%" y="-9.6%" width="131.8%" height="126.9%" filterUnits="objectBoundingBox" id="filter-2">
            <feOffset dx="0" dy="2" in="SourceAlpha" result="shadowOffsetOuter1"></feOffset>
            <feGaussianBlur stdDeviation="2" in="shadowOffsetOuter1" result="shadowBlurOuter1"></feGaussianBlur>
            <feColorMatrix values="0 0 0 0 0.568627451   0 0 0 0 0.568627451   0 0 0 0 0.568627451  0 0 0 0.3 0" type="matrix" in="shadowBlurOuter1"></feColorMatrix>
        </filter>
    </defs>
    <g id="Symbols" stroke="none" stroke-width="1" fill="none" fill-rule="evenodd">
        <g id="Block3/Time" transform="translate(-44.000000, -22.000000)">
            <g id="title" transform="translate(24.000000, 24.000000)">
                <g id="Group" transform="translate(24.000000, 0.000000)">
                    <g id="Rectangle">
                        <use fill="black" fill-opacity="1" filter="url(#filter-2)" xlink:href="#path-1"></use>
                        <use fill="#2398A1" fill-rule="evenodd" xlink:href="#path-1"></use>
                    </g>
                    <g transform="translate(10.000000, 12.000000)" fill="#FFFFFF" id="icon/i_next-copy">
                        <path d="M22.7466667,12.48 L17.8133333,10.24 C17.8133333,10.24 17.7866667,10.24 17.7866667,10.24 C17.76,10.24 17.7333333,10.2133333 17.7066667,10.2133333 C17.68,10.2133333 17.68,10.2133333 17.6533333,10.2133333 C17.6266667,10.2133333 17.6,10.2133333 17.5733333,10.2133333 C17.5466667,10.2133333 17.5466667,10.2133333 17.52,10.2133333 C17.4933333,10.2133333 17.4933333,10.2133333 17.4666667,10.2133333 L16.56,10.4266667 L17.04,9.73333333 C18.3466667,7.84 18.5066667,5.46666667 17.4666667,3.38666667 C16.4533333,1.36 14.5333333,0.106666667 12.32,0 C12.1066667,0 11.8933333,0 11.68,0 C9.46666667,0.106666667 7.54666667,1.36 6.53333333,3.38666667 C5.49333333,5.46666667 5.65333333,7.84 6.96,9.73333333 L8.72,12.2933333 L6.45333333,12.8266667 L3.01333333,11.2533333 C2.34666667,10.96 1.6,11.0133333 0.986666667,11.3866667 C0.373333333,11.7866667 0,12.4533333 0,13.1733333 L0,19.7866667 C0,20.6133333 0.48,21.3866667 1.25333333,21.7333333 L6.18666667,23.9733333 C6.18666667,23.9733333 6.21333333,23.9733333 6.21333333,23.9733333 C6.21333333,23.9733333 6.24,23.9733333 6.24,23.9733333 C6.26666667,23.9733333 6.29333333,24 6.32,24 C6.34666667,24 6.37333333,24 6.4,24 C6.45333333,24 6.48,24 6.53333333,24 L17.5466667,21.36 L20.9866667,22.9333333 C21.28,23.0666667 21.5733333,23.12 21.8666667,23.12 C22.2666667,23.12 22.6666667,23.0133333 23.0133333,22.7733333 C23.6266667,22.3733333 24,21.7066667 24,20.9866667 L24,14.4266667 C24,13.5733333 23.52,12.8266667 22.7466667,12.48 Z M5.86666667,22.6933333 L1.68,20.8 C1.30666667,20.6133333 1.06666667,20.24 1.06666667,19.84 L1.06666667,13.2 C1.06666667,12.8266667 1.25333333,12.5066667 1.54666667,12.2933333 C1.73333333,12.1866667 1.92,12.1333333 2.13333333,12.1333333 C2.29333333,12.1333333 2.42666667,12.16 2.58666667,12.24 L5.86666667,13.7333333 L5.86666667,22.6933333 Z M17.0666667,20.4266667 L6.93333333,22.8266667 L6.93333333,13.8133333 L9.38666667,13.2266667 L11.5733333,16.4266667 C11.68,16.56 11.84,16.6666667 12.0266667,16.6666667 C12.2133333,16.6666667 12.3733333,16.5866667 12.48,16.4266667 L15.68,11.7333333 L17.0933333,11.3866667 L17.0933333,20.4266667 L17.0666667,20.4266667 Z M22.9333333,21.04 C22.9333333,21.4133333 22.7466667,21.7333333 22.4533333,21.9466667 C22.1333333,22.16 21.76,22.16 21.44,22.0266667 L18.1333333,20.5066667 L18.1333333,11.5466667 L22.32,13.44 C22.6933333,13.6266667 22.9333333,14 22.9333333,14.4266667 L22.9333333,21.04 Z M14.9333333,6.18666667 C14.9333333,4.56 13.6266667,3.25333333 12,3.25333333 C10.3733333,3.25333333 9.06666667,4.56 9.06666667,6.18666667 C9.06666667,7.81333333 10.3733333,9.12 12,9.12 C13.6266667,9.12 14.9333333,7.81333333 14.9333333,6.18666667 Z M10.1333333,6.18666667 C10.1333333,5.14666667 10.96,4.32 12,4.32 C13.04,4.32 13.8666667,5.14666667 13.8666667,6.18666667 C13.8666667,7.22666667 13.04,8.05333333 12,8.05333333 C10.96,8.05333333 10.1333333,7.22666667 10.1333333,6.18666667 Z" id="Shape"></path>
                    </g>
                </g>
            </g>
        </g>
    </g>
</svg>