<?xml version="1.0" encoding="UTF-8"?>
<svg width="24px" height="24px" viewBox="0 0 24 24" version="1.1" xmlns="http://www.w3.org/2000/svg" xmlns:xlink="http://www.w3.org/1999/xlink">
    <title>icon/i_set_menu_s</title>
    <g id="icon/i_set_menu_s" stroke="none" stroke-width="1" fill="none" fill-rule="evenodd">
        <path d="M20.1894955,11.4036353 C20.1223244,10.6996471 19.9644287,10.0100528 19.7201701,9.34619283 C20.1341012,8.95668762 20.4067112,8.44505311 20.4996167,7.87366248 C20.6112778,7.18886608 20.4485841,6.50145262 20.0429404,5.93791316 C19.5557317,5.26184028 18.7666892,4.85750508 17.9327206,4.85750508 C17.4154158,4.85750508 16.9190475,5.00929435 16.4902864,5.29629819 C15.8975232,4.90941003 15.2611423,4.60277827 14.5898674,4.38032848 C14.482568,3.10276882 13.4405435,2.0668507 12.126345,2.00273282 C10.7148793,1.93905111 9.52542721,2.99590569 9.41027673,4.38032848 C8.73900179,4.60277827 8.10174857,4.90941003 7.50898532,5.29629819 C7.08371367,5.0119114 6.58211121,4.85794126 6.06567876,4.85794126 C5.31850918,4.85794126 4.60710604,5.17896683 4.11379093,5.73945306 C3.18778917,6.7915097 3.26804556,8.38965875 4.27910165,9.34532048 C4.03440689,10.0087443 3.87781968,10.6983386 3.80977622,11.4027629 C2.5880471,11.7909596 1.81034519,13.0366784 2.04020997,14.3329936 C2.26091506,15.5760954 3.33608903,16.4781075 4.59576547,16.4781075 C4.71745858,16.4781075 4.84046023,16.4689478 4.96215335,16.4515007 C5.32854123,17.0573493 5.7699514,17.6095481 6.27766032,18.1011186 C6.07396611,18.6319448 6.0504126,19.2116228 6.21397862,19.7660026 C6.41156637,20.431171 6.85559359,20.9807529 7.46536771,21.3113743 C7.84527706,21.5181218 8.27403811,21.6271658 8.7041077,21.6271658 C9.62749241,21.6271658 10.4767272,21.1399571 10.9447441,20.3478614 C11.6434981,20.4381498 12.3544651,20.4381498 13.0545276,20.3478614 C13.5177466,21.134723 14.3630558,21.6271658 15.2942917,21.6271658 C15.6423602,21.6271658 15.9825775,21.5578138 16.3053478,21.4212907 C16.9443457,21.1504253 17.440714,20.6479505 17.7015473,20.0045909 C17.9501677,19.3895826 17.9571465,18.7174353 17.7211752,18.1011186 C18.2288842,17.6095481 18.6702943,17.0560407 19.0366822,16.4510646 C19.157503,16.4685116 19.2800684,16.4772351 19.4013254,16.4772351 C20.5606813,16.4772351 21.590493,15.6969162 21.9023589,14.5785608 C22.0899146,13.910339 22.0052964,13.208968 21.6655153,12.6044279 C21.3405641,12.0269309 20.8193337,11.6029677 20.1894955,11.4036353 Z M21.06272,14.3447704 C20.854664,15.0875782 20.1716123,15.6061915 19.4013254,15.6061915 C19.2447382,15.6061915 19.0877148,15.5848189 18.934617,15.5420737 C18.7396463,15.4875517 18.5342074,15.5734783 18.4351954,15.751002 C18.0347858,16.4750542 17.5187895,17.1214671 16.9020366,17.6727937 C16.751992,17.8066997 16.7136086,18.0269686 16.8091311,18.2044923 C16.836174,18.2537802 16.8601637,18.3048128 16.8824087,18.3575901 C17.0621132,18.7824256 17.0656026,19.2513148 16.8920046,19.6783312 C16.7184065,20.1053475 16.3890936,20.4398946 15.9642581,20.6195991 C15.7500957,20.7107599 15.5237203,20.7561222 15.2929831,20.7561222 C14.5968462,20.7561222 13.9731144,20.3421911 13.7022491,19.7018847 C13.6337694,19.5383187 13.4745652,19.4362535 13.3009671,19.4362535 C13.2765413,19.4362535 13.2529878,19.4379982 13.2276895,19.4423599 C12.4181468,19.578883 11.5793802,19.578883 10.7698375,19.4423599 C10.5696327,19.4065935 10.3729173,19.5165098 10.2944056,19.7031932 C10.273033,19.7550981 10.2486071,19.8061307 10.2220004,19.8541101 C9.91973036,20.4111069 9.33787151,20.7569945 8.70323535,20.7569945 C8.41797621,20.7569945 8.1340256,20.6841531 7.88104349,20.54763 C7.47539976,20.3277973 7.18098093,19.9631541 7.04969194,19.5208716 C6.9192753,19.0781529 6.96769084,18.6118807 7.18839592,18.2066732 C7.28479083,18.0291495 7.24640734,17.8080083 7.09549042,17.6732299 C6.47960984,17.1219033 5.96317739,16.4754904 5.56276777,15.7514382 C5.46375581,15.5743507 5.25962542,15.4871155 5.06291002,15.5425098 C5.00926036,15.557776 4.95473836,15.5699889 4.899344,15.5795848 C3.96461872,15.7427146 3.06173429,15.10677 2.89816827,14.1812044 C2.81703952,13.7271451 2.91866854,13.2691602 3.18255506,12.8909956 C3.44644157,12.5132672 3.84205325,12.260285 4.29611252,12.1795925 C4.49544497,12.1442622 4.64461718,11.9767706 4.65552158,11.7748211 C4.70219242,10.9478313 4.88625872,10.141778 5.20248635,9.37803369 C5.28012569,9.19091416 5.21775252,8.97457084 5.05331414,8.8568033 C5.00795183,8.82496245 4.96477041,8.79006837 4.9228975,8.75342958 C4.20800495,8.12446371 4.13908914,7.03140652 4.76805501,6.31695015 C5.0960594,5.9444558 5.56800189,5.73116571 6.06480641,5.73116571 C6.48484395,5.73116571 6.88961532,5.88469968 7.20453443,6.16167148 C7.3563237,6.29514135 7.57920966,6.3069181 7.74452039,6.19002292 C8.42015709,5.71110161 9.16558197,5.3525649 9.95942238,5.12357247 C10.1535207,5.06774194 10.2839374,4.88542035 10.2747777,4.68347083 C10.2712883,4.62720412 10.2712883,4.57093741 10.2747777,4.5146707 C10.3192676,3.59390306 11.0755969,2.87203169 11.9972369,2.87203169 L12.0822912,2.87421257 C13.033155,2.92044723 13.768984,3.73173469 13.7231855,4.68259848 C13.7140258,4.88498417 13.8440063,5.06730576 14.0385408,5.12357247 C14.8332536,5.3525649 15.5778061,5.71153779 16.2534428,6.19002292 C16.4178812,6.3069181 16.6420757,6.29557752 16.7929926,6.16167148 C16.8353017,6.12459651 16.8789193,6.08926625 16.9255901,6.05655305 C17.2213175,5.84369913 17.5698221,5.73029336 17.9327206,5.73029336 C18.4871004,5.73029336 19.011384,5.99854163 19.3350266,6.44780297 C19.6050196,6.82160584 19.7123189,7.27871835 19.638169,7.73408615 C19.5648914,8.18901777 19.3180158,8.58811886 18.9437767,8.85723948 C18.7793383,8.97544319 18.7174013,9.19178651 18.7954769,9.37803369 C19.1125768,10.1422141 19.2957708,10.9491398 19.343314,11.7748211 C19.3537822,11.9767706 19.5033906,12.1446984 19.702723,12.1795925 C19.757245,12.1887522 19.8126394,12.2018374 19.8662891,12.2166674 C20.7826949,12.4735751 21.3200638,13.4279283 21.06272,14.3447704 Z" id="Combined-Shape" fill="#FFFFFF"></path>
        <path d="M21.06272,14.3447704 C20.854664,15.0875782 20.1716123,15.6061915 19.4013254,15.6061915 C19.2447382,15.6061915 19.0877148,15.5848189 18.934617,15.5420737 C18.7396463,15.4875517 18.5342074,15.5734783 18.4351954,15.751002 C18.0347858,16.4750542 17.5187895,17.1214671 16.9020366,17.6727937 C16.751992,17.8066997 16.7136086,18.0269686 16.8091311,18.2044923 C16.836174,18.2537802 16.8601637,18.3048128 16.8824087,18.3575901 C17.0621132,18.7824256 17.0656026,19.2513148 16.8920046,19.6783312 C16.7184065,20.1053475 16.3890936,20.4398946 15.9642581,20.6195991 C15.7500957,20.7107599 15.5237203,20.7561222 15.2929831,20.7561222 C14.5968462,20.7561222 13.9731144,20.3421911 13.7022491,19.7018847 C13.6337694,19.5383187 13.4745652,19.4362535 13.3009671,19.4362535 C13.2765413,19.4362535 13.2529878,19.4379982 13.2276895,19.4423599 C12.4181468,19.578883 11.5793802,19.578883 10.7698375,19.4423599 C10.5696327,19.4065935 10.3729173,19.5165098 10.2944056,19.7031932 C10.273033,19.7550981 10.2486071,19.8061307 10.2220004,19.8541101 C9.91973036,20.4111069 9.33787151,20.7569945 8.70323535,20.7569945 C8.41797621,20.7569945 8.1340256,20.6841531 7.88104349,20.54763 C7.47539976,20.3277973 7.18098093,19.9631541 7.04969194,19.5208716 C6.9192753,19.0781529 6.96769084,18.6118807 7.18839592,18.2066732 C7.28479083,18.0291495 7.24640734,17.8080083 7.09549042,17.6732299 C6.47960984,17.1219033 5.96317739,16.4754904 5.56276777,15.7514382 C5.46375581,15.5743507 5.25962542,15.4871155 5.06291002,15.5425098 C5.00926036,15.557776 4.95473836,15.5699889 4.899344,15.5795848 C3.96461872,15.7427146 3.06173429,15.10677 2.89816827,14.1812044 C2.81703952,13.7271451 2.91866854,13.2691602 3.18255506,12.8909956 C3.44644157,12.5132672 3.84205325,12.260285 4.29611252,12.1795925 C4.49544497,12.1442622 4.64461718,11.9767706 4.65552158,11.7748211 C4.70219242,10.9478313 4.88625872,10.141778 5.20248635,9.37803369 C5.28012569,9.19091416 5.21775252,8.97457084 5.05331414,8.8568033 C5.00795183,8.82496245 4.96477041,8.79006837 4.9228975,8.75342958 C4.20800495,8.12446371 4.13908914,7.03140652 4.76805501,6.31695015 C5.0960594,5.9444558 5.56800189,5.73116571 6.06480641,5.73116571 C6.48484395,5.73116571 6.88961532,5.88469968 7.20453443,6.16167148 C7.3563237,6.29514135 7.57920966,6.3069181 7.74452039,6.19002292 C8.42015709,5.71110161 9.16558197,5.3525649 9.95942238,5.12357247 C10.1535207,5.06774194 10.2839374,4.88542035 10.2747777,4.68347083 C10.2712883,4.62720412 10.2712883,4.57093741 10.2747777,4.5146707 C10.3192676,3.59390306 11.0755969,2.87203169 11.9972369,2.87203169 L12.0822912,2.87421257 C13.033155,2.92044723 13.768984,3.73173469 13.7231855,4.68259848 C13.7140258,4.88498417 13.8440063,5.06730576 14.0385408,5.12357247 C14.8332536,5.3525649 15.5778061,5.71153779 16.2534428,6.19002292 C16.4178812,6.3069181 16.6420757,6.29557752 16.7929926,6.16167148 C16.8353017,6.12459651 16.8789193,6.08926625 16.9255901,6.05655305 C17.2213175,5.84369913 17.5698221,5.73029336 17.9327206,5.73029336 C18.4871004,5.73029336 19.011384,5.99854163 19.3350266,6.44780297 C19.6050196,6.82160584 19.7123189,7.27871835 19.638169,7.73408615 C19.5648914,8.18901777 19.3180158,8.58811886 18.9437767,8.85723948 C18.7793383,8.97544319 18.7174013,9.19178651 18.7954769,9.37803369 C19.1125768,10.1422141 19.2957708,10.9491398 19.343314,11.7748211 C19.3537822,11.9767706 19.5033906,12.1446984 19.702723,12.1795925 C19.757245,12.1887522 19.8126394,12.2018374 19.8662891,12.2166674 C20.7826949,12.4735751 21.3200638,13.4279283 21.06272,14.3447704 Z" id="Path" fill="#FFB13E"></path>
        <path d="M12.0002901,8.42586136 C9.92409212,8.42586136 8.23565462,10.114735 8.23565462,12.1896245 C8.23565462,14.2653864 9.92409212,15.95426 12.0002901,15.95426 C14.0751796,15.95426 15.7636172,14.2653864 15.7636172,12.1896245 C15.7640533,10.114735 14.0756158,8.42586136 12.0002901,8.42586136 Z" id="Shape" fill="#FFFFFF"></path>
        <path d="M12.0002901,15.0819079 C10.4056305,15.0819079 9.10800673,13.7842842 9.10800673,12.1896245 C9.10800673,10.595401 10.4056305,9.29821347 12.0002901,9.29821347 C13.5940774,9.29821347 14.8912651,10.595401 14.8912651,12.1896245 C14.8917012,13.7847203 13.5940774,15.0819079 12.0002901,15.0819079 Z" id="Path" fill="#FFB13E" opacity="0.3"></path>
    </g>
</svg>