<svg width="138" height="22" viewBox="0 0 138 22" fill="none" xmlns="http://www.w3.org/2000/svg">
<g filter="url(#filter0_d_104_17107)">
<path d="M4.36393 2.30317H1.92573C1.69973 2.30317 1.52154 2.2875 1.39115 2.25617C1.26946 2.22483 1.17819 2.17 1.11735 2.09166C1.06519 2.00548 1.03042 1.88797 1.01304 1.73913C1.00435 1.58245 1 1.3866 1 1.15159C1 0.916569 1.00435 0.724638 1.01304 0.575793C1.03042 0.426949 1.06519 0.30944 1.11735 0.223267C1.17819 0.137094 1.26946 0.0783392 1.39115 0.0470035C1.52154 0.0156678 1.69973 0 1.92573 0H6.39794H6.69782H11.4699C11.6959 0 11.8698 0.0156678 11.9915 0.0470035C12.1218 0.0783392 12.2175 0.137094 12.2783 0.223267C12.3391 0.30944 12.3739 0.426949 12.3826 0.575793C12.4 0.724638 12.4087 0.916569 12.4087 1.15159C12.4087 1.3866 12.4 1.58245 12.3826 1.73913C12.3739 1.88797 12.3391 2.00548 12.2783 2.09166C12.2175 2.17 12.1218 2.22483 11.9915 2.25617C11.8698 2.2875 11.6959 2.30317 11.4699 2.30317H9.03171L8.51017 19.1187C8.50148 19.2754 8.4754 19.4007 8.43194 19.4947C8.39717 19.5887 8.31894 19.6631 8.19725 19.718C8.07556 19.7728 7.89302 19.812 7.64963 19.8355C7.41494 19.8512 7.09767 19.859 6.69782 19.859C6.29798 19.859 5.98071 19.8512 5.74601 19.8355C5.51132 19.8198 5.32878 19.7846 5.1984 19.7297C5.0767 19.6749 4.99847 19.5966 4.9637 19.4947C4.92893 19.385 4.9072 19.2401 4.89851 19.0599L4.36393 2.30317Z" fill="#FFB13E"/>
<path d="M14.4948 6.59224C14.4948 6.42773 14.5122 6.29064 14.547 6.18096C14.5905 6.06345 14.6774 5.97336 14.8078 5.91069C14.9468 5.84802 15.1468 5.80493 15.4075 5.78143C15.677 5.7501 16.0334 5.73443 16.4767 5.73443C16.92 5.73443 17.272 5.7501 17.5328 5.78143C17.7936 5.80493 17.9935 5.84802 18.1326 5.91069C18.2717 5.97336 18.3586 6.06345 18.3934 6.18096C18.4368 6.29064 18.4585 6.42773 18.4585 6.59224V7.28555C18.7019 7.04269 18.9497 6.81943 19.2017 6.61575C19.4625 6.40423 19.732 6.22405 20.0101 6.07521C20.297 5.92636 20.5969 5.80885 20.9098 5.72268C21.2314 5.63651 21.5747 5.59342 21.9398 5.59342C22.3571 5.59342 22.7439 5.64826 23.1003 5.75793C23.4653 5.86761 23.7739 6.04387 24.026 6.28672C24.2868 6.52957 24.4867 6.84685 24.6258 7.23854C24.7648 7.6224 24.8257 8.09244 24.8083 8.64865L24.717 11.3514C24.717 11.5002 24.6909 11.6177 24.6388 11.7039C24.5953 11.7901 24.5084 11.8566 24.378 11.9036C24.2476 11.9506 24.0608 11.982 23.8174 11.9976C23.5827 12.0133 23.2698 12.0212 22.8786 12.0212C22.4874 12.0212 22.1745 12.0133 21.9398 11.9976C21.7051 11.982 21.5226 11.9506 21.3922 11.9036C21.2705 11.8566 21.1879 11.7901 21.1445 11.7039C21.1097 11.6177 21.088 11.5002 21.0793 11.3514L21.0271 9.74148C21.0184 9.43596 20.988 9.18136 20.9359 8.97767C20.8837 8.77399 20.8098 8.6134 20.7142 8.49589C20.6273 8.37838 20.523 8.29612 20.4013 8.24912C20.2796 8.20211 20.1405 8.17861 19.9841 8.17861C19.732 8.17861 19.4886 8.26479 19.2539 8.43713C19.0279 8.60948 18.8236 8.80141 18.6411 9.01293L18.3151 19.1892C18.3151 19.338 18.2934 19.4555 18.2499 19.5417C18.2065 19.6279 18.1239 19.6945 18.0022 19.7415C17.8805 19.7885 17.7067 19.8198 17.4807 19.8355C17.2634 19.8512 16.9722 19.859 16.6071 19.859C16.242 19.859 15.9465 19.8512 15.7205 19.8355C15.5032 19.8198 15.3337 19.7885 15.212 19.7415C15.099 19.6945 15.0207 19.6279 14.9773 19.5417C14.9338 19.4555 14.9121 19.338 14.9121 19.1892L14.4948 6.59224Z" fill="#FFB13E"/>
<path d="M26.751 16.4395C26.7423 16.0008 26.8466 15.6169 27.064 15.2879C27.2813 14.951 27.5594 14.6573 27.8984 14.4066C28.2461 14.1559 28.6373 13.9444 29.0719 13.772C29.5065 13.5919 29.9368 13.4391 30.3627 13.3137C30.9103 13.1492 31.4884 13.0082 32.0968 12.8907C32.714 12.7732 33.3137 12.6714 33.8961 12.5852L33.7788 8.69565C33.7614 8.26479 33.6397 7.94751 33.4137 7.74383C33.1964 7.53231 32.8487 7.42656 32.3706 7.42656C32.1446 7.42656 31.9404 7.44222 31.7578 7.47356C31.5753 7.5049 31.4145 7.56757 31.2754 7.66157C31.145 7.75558 31.0407 7.88484 30.9625 8.04935C30.8842 8.21387 30.8408 8.42538 30.8321 8.6839L30.7408 11.3514C30.7408 11.5002 30.7147 11.6177 30.6626 11.7039C30.6191 11.7901 30.5278 11.8566 30.3888 11.9036C30.2497 11.9506 30.0498 11.982 29.789 11.9976C29.5369 12.0133 29.1979 12.0212 28.772 12.0212C28.3808 12.0212 28.0636 12.0133 27.8202 11.9976C27.5768 11.982 27.3899 11.9506 27.2595 11.9036C27.1291 11.8566 27.0422 11.7901 26.9988 11.7039C26.9553 11.6177 26.9292 11.5002 26.9205 11.3514L26.8162 8.84841C26.7988 8.43322 26.8771 8.06502 27.0509 7.74383C27.2248 7.41481 27.4595 7.13278 27.755 6.89777C28.0592 6.65492 28.4026 6.45123 28.785 6.28672C29.1762 6.12221 29.5804 5.98903 29.9976 5.88719C30.4235 5.77752 30.8451 5.70309 31.2624 5.66392C31.6796 5.61692 32.062 5.59342 32.4097 5.59342C33.1573 5.59342 33.8657 5.67176 34.535 5.82844C35.213 5.97728 35.8041 6.19663 36.3082 6.48649C36.8124 6.77634 37.2079 7.13278 37.4948 7.55582C37.7903 7.97101 37.9294 8.44888 37.912 8.98942L37.5078 19.1892C37.4991 19.338 37.473 19.4555 37.4296 19.5417C37.3948 19.6279 37.3166 19.6945 37.1949 19.7415C37.0732 19.7885 36.8993 19.8198 36.6733 19.8355C36.456 19.8512 36.1648 19.859 35.7997 19.859C35.4607 19.859 35.1869 19.8512 34.9783 19.8355C34.7784 19.8198 34.6219 19.7885 34.5089 19.7415C34.4046 19.6945 34.3307 19.6279 34.2873 19.5417C34.2525 19.4555 34.2351 19.338 34.2351 19.1892L34.2221 18.7779C33.9874 18.9346 33.731 19.0873 33.4528 19.2362C33.1747 19.3772 32.8791 19.5065 32.5662 19.624C32.2533 19.7336 31.9186 19.8237 31.5622 19.8942C31.2145 19.9647 30.8495 20 30.467 20C29.8585 20 29.324 19.9256 28.8633 19.7767C28.4026 19.6201 28.0158 19.4125 27.7028 19.1539C27.3986 18.8876 27.1683 18.5781 27.0118 18.2256C26.8553 17.8653 26.7728 17.4814 26.7641 17.074L26.751 16.4395ZM30.3236 16.7215C30.3236 16.9565 30.3627 17.1602 30.4409 17.3325C30.5192 17.4971 30.6235 17.6342 30.7539 17.7438C30.8842 17.8457 31.0364 17.924 31.2102 17.9788C31.3927 18.0259 31.5883 18.0494 31.7969 18.0494C32.3011 18.0494 32.7357 17.9749 33.1008 17.8261C33.4659 17.6772 33.7788 17.5049 34.0396 17.309L33.9483 14.2891C33.4789 14.3596 33.066 14.4418 32.7096 14.5358C32.3532 14.622 32.036 14.7199 31.7578 14.8296C31.3232 15.0098 30.9755 15.2096 30.7147 15.4289C30.454 15.6404 30.3236 15.9185 30.3236 16.2632V16.7215Z" fill="#FFB13E"/>
<path d="M41.0673 6.59224C41.0673 6.42773 41.0847 6.29064 41.1195 6.18096C41.1629 6.06345 41.2498 5.97336 41.3802 5.91069C41.5193 5.84802 41.7192 5.80493 41.98 5.78143C42.2495 5.7501 42.6058 5.73443 43.0492 5.73443C43.4925 5.73443 43.8445 5.7501 44.1053 5.78143C44.3747 5.80493 44.5747 5.84802 44.705 5.91069C44.8441 5.97336 44.931 6.06345 44.9658 6.18096C45.0093 6.29064 45.031 6.42773 45.031 6.59224L45.0049 7.30905C45.2483 7.05836 45.496 6.83118 45.7481 6.6275C46.0089 6.41598 46.2827 6.2358 46.5695 6.08696C46.8651 5.93028 47.178 5.80885 47.5083 5.72268C47.8386 5.63651 48.1994 5.59342 48.5905 5.59342C49.1207 5.59342 49.6119 5.67959 50.0639 5.85194C50.5246 6.02428 50.9157 6.27497 51.2373 6.604C51.5676 6.93302 51.8197 7.33255 51.9936 7.80258C52.1761 8.27262 52.2587 8.80533 52.2413 9.4007L51.9284 19.1892C51.9284 19.338 51.9066 19.4555 51.8632 19.5417C51.8197 19.6279 51.7371 19.6945 51.6154 19.7415C51.4938 19.7885 51.3199 19.8198 51.0939 19.8355C50.8766 19.8512 50.5854 19.859 50.2203 19.859C49.8553 19.859 49.5597 19.8512 49.3337 19.8355C49.1164 19.8198 48.9469 19.7885 48.8252 19.7415C48.7122 19.6945 48.634 19.6279 48.5905 19.5417C48.5471 19.4555 48.5253 19.338 48.5253 19.1892L48.2254 9.74148C48.2167 9.43596 48.1733 9.18136 48.0951 8.97767C48.0168 8.77399 47.9125 8.6134 47.7821 8.49589C47.6517 8.37838 47.4953 8.29612 47.3127 8.24912C47.1389 8.20211 46.9477 8.17861 46.739 8.17861C46.4087 8.17861 46.1175 8.26087 45.8655 8.42538C45.6134 8.58989 45.3961 8.78574 45.2135 9.01293L44.8876 19.1892C44.8876 19.338 44.8658 19.4555 44.8224 19.5417C44.7789 19.6279 44.6964 19.6945 44.5747 19.7415C44.453 19.7885 44.2791 19.8198 44.0531 19.8355C43.8358 19.8512 43.5446 19.859 43.1795 19.859C42.8145 19.859 42.5189 19.8512 42.2929 19.8355C42.0756 19.8198 41.9061 19.7885 41.7844 19.7415C41.6714 19.6945 41.5932 19.6279 41.5497 19.5417C41.5063 19.4555 41.4845 19.338 41.4845 19.1892L41.0673 6.59224Z" fill="#FFB13E"/>
<path d="M55.2141 16.4395C55.2141 16.2906 55.2358 16.1692 55.2793 16.0752C55.3227 15.9812 55.4053 15.9068 55.527 15.8519C55.6574 15.7893 55.8399 15.7462 56.0746 15.7227C56.3093 15.6992 56.6179 15.6874 57.0003 15.6874C57.3915 15.6874 57.7044 15.6992 57.9391 15.7227C58.1738 15.7462 58.352 15.7893 58.4737 15.8519C58.6041 15.9068 58.691 15.9851 58.7345 16.087C58.7779 16.181 58.7997 16.3024 58.7997 16.4512V17.027C58.7997 17.5049 58.9518 17.8378 59.256 18.0259C59.5689 18.2139 60.0079 18.3079 60.5729 18.3079C61.1379 18.3079 61.5291 18.2021 61.7464 17.9906C61.9724 17.7712 62.0854 17.4109 62.0854 16.9095V16.3337C62.0854 16.1379 62.0549 15.9694 61.9941 15.8284C61.9419 15.6874 61.8594 15.566 61.7464 15.4642C61.6334 15.3545 61.4856 15.2605 61.3031 15.1821C61.1292 15.1038 60.9249 15.0294 60.6902 14.9589L56.8308 13.7368C56.2137 13.5409 55.753 13.2197 55.4488 12.7732C55.1532 12.3267 54.9924 11.7783 54.9663 11.1281L54.8881 9.07168C54.862 8.44497 55.0055 7.91226 55.3184 7.47356C55.6313 7.03486 56.0529 6.67842 56.5831 6.40423C57.1133 6.12221 57.7218 5.91853 58.4085 5.79318C59.0952 5.66001 59.7993 5.59342 60.5207 5.59342C61.2248 5.59342 61.9115 5.64826 62.5808 5.75793C63.2501 5.86761 63.8412 6.0517 64.3541 6.31022C64.8756 6.56091 65.2841 6.89777 65.5797 7.3208C65.8839 7.736 66.023 8.25695 65.9969 8.88367L65.8926 11.3514C65.8839 11.5002 65.8535 11.6177 65.8013 11.7039C65.7579 11.7901 65.6709 11.8566 65.5406 11.9036C65.4102 11.9506 65.2233 11.982 64.9799 11.9976C64.7452 12.0133 64.4323 12.0212 64.0411 12.0212C63.6152 12.0212 63.2719 12.0133 63.0111 11.9976C62.759 11.982 62.5634 11.9506 62.4244 11.9036C62.2853 11.8566 62.1897 11.7901 62.1375 11.7039C62.0941 11.6177 62.0723 11.5002 62.0723 11.3514L61.9811 8.6839C61.9724 8.42538 61.9289 8.21387 61.8507 8.04935C61.7811 7.88484 61.6812 7.75558 61.5508 7.66157C61.4291 7.56757 61.2813 7.5049 61.1075 7.47356C60.9336 7.44222 60.7381 7.42656 60.5207 7.42656C60.3034 7.42656 60.1035 7.44614 59.921 7.48531C59.7471 7.51665 59.595 7.57932 59.4646 7.67333C59.3342 7.76733 59.2299 7.89659 59.1517 8.0611C59.0822 8.21778 59.043 8.42146 59.0344 8.67215L58.9431 11.2221C58.9257 11.606 59.0126 11.9232 59.2039 12.1739C59.4038 12.4168 59.7297 12.6048 60.1817 12.738L63.4674 13.7955C63.9107 13.9365 64.2758 14.0893 64.5627 14.2538C64.8495 14.4183 65.0755 14.6103 65.2407 14.8296C65.4145 15.049 65.5319 15.2996 65.5927 15.5817C65.6536 15.8559 65.6753 16.181 65.6579 16.557L65.6318 17.0975C65.6058 17.6381 65.4493 18.0924 65.1624 18.4606C64.8843 18.8288 64.5105 19.1304 64.0411 19.3655C63.5804 19.5926 63.0502 19.7571 62.4504 19.859C61.8594 19.953 61.2379 20 60.5859 20C59.9514 20 59.3125 19.953 58.6693 19.859C58.0347 19.7728 57.461 19.6161 56.9482 19.389C56.4353 19.1539 56.0181 18.8406 55.6965 18.4489C55.3749 18.0494 55.2141 17.5401 55.2141 16.9213V16.4395Z" fill="#FFB13E"/>
<path d="M90.0018 0.975323C89.9934 0.771641 90.0143 0.607129 90.0644 0.481786C90.1145 0.356443 90.2189 0.258519 90.3776 0.188014C90.5446 0.117509 90.7784 0.0705053 91.079 0.0470035C91.3796 0.0156678 91.7804 0 92.2814 0C92.4234 0 92.557 0 92.6822 0C92.8158 0 92.9411 0.00391696 93.058 0.0117509H98.0807C98.2978 0.0117509 98.4648 0.0274187 98.5817 0.0587544C98.7069 0.0900901 98.7946 0.148844 98.8447 0.235018C98.9032 0.321191 98.9366 0.4387 98.9449 0.587544C98.9616 0.736389 98.97 0.92832 98.97 1.16334C98.97 1.39835 98.9616 1.5942 98.9449 1.75088C98.9366 1.89973 98.9032 2.01723 98.8447 2.10341C98.7946 2.18175 98.7069 2.23658 98.5817 2.26792C98.4648 2.29926 98.2978 2.31492 98.0807 2.31492H94.5235L94.298 9.52996H97.3166C97.5337 9.52996 97.7007 9.54563 97.8176 9.57697C97.9429 9.6083 98.0306 9.66706 98.0807 9.75323C98.1391 9.83157 98.1725 9.94516 98.1809 10.094C98.1976 10.235 98.2059 10.4191 98.2059 10.6463C98.2059 10.8735 98.1976 11.0615 98.1809 11.2103C98.1725 11.3514 98.1391 11.4649 98.0807 11.5511C98.0306 11.6295 97.9429 11.6843 97.8176 11.7156C97.7007 11.747 97.5337 11.7626 97.3166 11.7626H94.2354L94.0099 19.1187C94.0099 19.2754 93.989 19.4007 93.9473 19.4947C93.9139 19.5887 93.8346 19.6631 93.7093 19.718C93.5924 19.7728 93.4212 19.812 93.1958 19.8355C92.9703 19.8512 92.6655 19.859 92.2814 19.859C91.8973 19.859 91.5883 19.8512 91.3545 19.8355C91.1291 19.8198 90.9579 19.7846 90.841 19.7297C90.7241 19.6749 90.6448 19.5966 90.603 19.4947C90.5696 19.385 90.5487 19.2401 90.5404 19.0599L90.0018 0.975323Z" fill="#2398A1"/>
<path d="M101.25 6.59224C101.25 6.42773 101.266 6.29064 101.3 6.18096C101.341 6.06345 101.425 5.97336 101.55 5.91069C101.684 5.84802 101.876 5.80494 102.126 5.78143C102.385 5.7501 102.728 5.73443 103.153 5.73443C103.579 5.73443 103.917 5.7501 104.168 5.78143C104.419 5.80494 104.611 5.84802 104.744 5.91069C104.878 5.97336 104.961 6.06345 104.995 6.18096C105.036 6.29064 105.057 6.42773 105.057 6.59224V7.28555C105.291 7.04269 105.529 6.81943 105.771 6.61575C106.022 6.40423 106.281 6.22405 106.548 6.07521C106.823 5.92636 107.111 5.80885 107.412 5.72268C107.721 5.63651 108.051 5.59342 108.402 5.59342C108.802 5.59342 109.174 5.64826 109.516 5.75793C109.867 5.86761 110.163 6.04387 110.406 6.28672C110.656 6.52957 110.848 6.84685 110.982 7.23854C111.115 7.6224 111.174 8.09244 111.157 8.64865L111.069 11.3514C111.069 11.5002 111.044 11.6177 110.994 11.7039C110.953 11.7901 110.869 11.8566 110.744 11.9036C110.619 11.9506 110.439 11.982 110.205 11.9976C109.98 12.0133 109.679 12.0212 109.303 12.0212C108.928 12.0212 108.627 12.0133 108.402 11.9976C108.176 11.982 108.001 11.9506 107.876 11.9036C107.759 11.8566 107.679 11.7901 107.638 11.7039C107.604 11.6177 107.583 11.5002 107.575 11.3514L107.525 9.74148C107.516 9.43596 107.487 9.18135 107.437 8.97767C107.387 8.77399 107.316 8.6134 107.224 8.49589C107.141 8.37838 107.04 8.29612 106.924 8.24912C106.807 8.20211 106.673 8.17861 106.523 8.17861C106.281 8.17861 106.047 8.26479 105.821 8.43713C105.604 8.60948 105.408 8.80141 105.233 9.01293L104.92 19.1892C104.92 19.338 104.899 19.4555 104.857 19.5417C104.815 19.6279 104.736 19.6945 104.619 19.7415C104.502 19.7885 104.335 19.8198 104.118 19.8355C103.909 19.8512 103.629 19.859 103.279 19.859C102.928 19.859 102.644 19.8512 102.427 19.8355C102.218 19.8198 102.055 19.7885 101.938 19.7415C101.83 19.6945 101.755 19.6279 101.713 19.5417C101.671 19.4555 101.65 19.338 101.65 19.1892L101.25 6.59224Z" fill="#2398A1"/>
<path d="M113.048 9.16569C113.023 8.53897 113.161 8.00235 113.462 7.55582C113.771 7.10145 114.18 6.72934 114.689 6.43948C115.207 6.14963 115.796 5.93811 116.455 5.80494C117.123 5.66392 117.804 5.59342 118.497 5.59342C119.157 5.59342 119.804 5.66392 120.438 5.80494C121.073 5.93811 121.637 6.14963 122.129 6.43948C122.622 6.72934 123.01 7.10145 123.294 7.55582C123.587 8.00235 123.72 8.53897 123.695 9.16569L123.507 13.5018C123.499 13.6506 123.47 13.7681 123.42 13.8543C123.378 13.9405 123.294 14.007 123.169 14.0541C123.044 14.1011 122.864 14.1324 122.63 14.1481C122.405 14.1637 122.104 14.1716 121.729 14.1716H116.844L116.769 16.7098C116.76 17.0074 116.789 17.2581 116.856 17.4618C116.931 17.6655 117.04 17.83 117.182 17.9553C117.324 18.0807 117.499 18.1708 117.708 18.2256C117.917 18.2805 118.155 18.3079 118.422 18.3079C118.956 18.3079 119.349 18.1982 119.599 17.9788C119.85 17.7595 119.975 17.3717 119.975 16.8155V16.4512C119.975 16.3024 119.996 16.181 120.038 16.087C120.079 15.9851 120.159 15.9068 120.276 15.8519C120.401 15.7893 120.576 15.7462 120.802 15.7227C121.027 15.6992 121.328 15.6874 121.704 15.6874C122.071 15.6874 122.367 15.6992 122.593 15.7227C122.818 15.7462 122.989 15.7893 123.106 15.8519C123.232 15.9068 123.311 15.9812 123.344 16.0752C123.386 16.1692 123.407 16.2906 123.407 16.4395V16.9565C123.407 17.5754 123.265 18.0807 122.981 18.4724C122.697 18.8641 122.321 19.1735 121.854 19.4007C121.395 19.6279 120.864 19.7846 120.263 19.8707C119.67 19.9569 119.061 20 118.434 20C117.8 20 117.182 19.9452 116.581 19.8355C115.979 19.718 115.441 19.53 114.965 19.2714C114.497 19.0051 114.113 18.6565 113.813 18.2256C113.52 17.7948 113.362 17.2581 113.337 16.6157L113.048 9.16569ZM119.975 12.4089L119.85 8.96592C119.841 8.6369 119.8 8.37054 119.725 8.16686C119.658 7.96318 119.562 7.8065 119.436 7.69683C119.32 7.58715 119.178 7.51665 119.011 7.48531C118.852 7.44614 118.681 7.42656 118.497 7.42656C118.288 7.42656 118.096 7.44614 117.921 7.48531C117.746 7.51665 117.591 7.58715 117.457 7.69683C117.332 7.8065 117.228 7.96318 117.144 8.16686C117.069 8.37054 117.027 8.6369 117.019 8.96592L116.906 12.4089H119.975Z" fill="#2398A1"/>
<path d="M126.35 9.16569C126.325 8.53897 126.463 8.00235 126.764 7.55582C127.073 7.10145 127.482 6.72934 127.991 6.43948C128.509 6.14963 129.098 5.93811 129.757 5.80494C130.425 5.66392 131.106 5.59342 131.799 5.59342C132.459 5.59342 133.106 5.66392 133.74 5.80494C134.375 5.93811 134.939 6.14963 135.431 6.43948C135.924 6.72934 136.312 7.10145 136.596 7.55582C136.888 8.00235 137.022 8.53897 136.997 9.16569L136.809 13.5018C136.801 13.6506 136.772 13.7681 136.721 13.8543C136.68 13.9405 136.596 14.007 136.471 14.0541C136.346 14.1011 136.166 14.1324 135.932 14.1481C135.707 14.1637 135.406 14.1716 135.031 14.1716H130.146L130.07 16.7098C130.062 17.0074 130.091 17.2581 130.158 17.4618C130.233 17.6655 130.342 17.83 130.484 17.9553C130.626 18.0807 130.801 18.1708 131.01 18.2256C131.219 18.2805 131.457 18.3079 131.724 18.3079C132.258 18.3079 132.651 18.1982 132.901 17.9788C133.152 17.7595 133.277 17.3717 133.277 16.8155V16.4512C133.277 16.3024 133.298 16.181 133.34 16.087C133.381 15.9851 133.461 15.9068 133.578 15.8519C133.703 15.7893 133.878 15.7462 134.104 15.7227C134.329 15.6992 134.63 15.6874 135.005 15.6874C135.373 15.6874 135.669 15.6992 135.895 15.7227C136.12 15.7462 136.291 15.7893 136.408 15.8519C136.534 15.9068 136.613 15.9812 136.646 16.0752C136.688 16.1692 136.709 16.2906 136.709 16.4395V16.9565C136.709 17.5754 136.567 18.0807 136.283 18.4724C135.999 18.8641 135.623 19.1735 135.156 19.4007C134.697 19.6279 134.166 19.7846 133.565 19.8707C132.972 19.9569 132.363 20 131.736 20C131.102 20 130.484 19.9452 129.883 19.8355C129.281 19.718 128.743 19.53 128.267 19.2714C127.799 19.0051 127.415 18.6565 127.115 18.2256C126.822 17.7948 126.664 17.2581 126.639 16.6157L126.35 9.16569ZM133.277 12.4089L133.152 8.96592C133.143 8.6369 133.102 8.37054 133.026 8.16686C132.96 7.96318 132.864 7.8065 132.738 7.69683C132.622 7.58715 132.48 7.51665 132.313 7.48531C132.154 7.44614 131.983 7.42656 131.799 7.42656C131.59 7.42656 131.398 7.44614 131.223 7.48531C131.047 7.51665 130.893 7.58715 130.759 7.69683C130.634 7.8065 130.53 7.96318 130.446 8.16686C130.371 8.37054 130.329 8.6369 130.321 8.96592L130.208 12.4089H133.277Z" fill="#2398A1"/>
<path fill-rule="evenodd" clip-rule="evenodd" d="M77.8245 1C73.3203 1.00276 69.6697 4.47088 69.6667 8.74987C69.6689 8.91707 69.6812 9.08401 69.7036 9.24986V9.40986C69.7036 9.52486 69.7457 9.63985 69.7773 9.75985C69.8089 9.87985 69.8036 9.87985 69.8194 9.93985C69.8352 9.99985 69.8878 10.1748 69.9404 10.3398L69.9825 10.4598C70.0404 10.6198 70.0983 10.7798 70.1825 10.9598C70.2667 11.1398 70.3404 11.3098 70.4299 11.4898L70.5141 11.6498L70.7141 12.0198L70.8246 12.2048C70.893 12.3298 70.9667 12.4498 71.0404 12.5698L71.1509 12.7398C71.2457 12.8948 71.3509 13.0498 71.4562 13.2048L71.493 13.2598C71.8193 13.7598 72.2035 14.2598 72.6193 14.7598C72.6315 14.7719 72.6421 14.7853 72.6509 14.7998L73.9246 16.2997L74.314 16.7247L74.6982 17.1397L77.2982 19.7297L77.3403 19.7697L77.4456 19.8647C77.5479 19.9559 77.6843 20.0045 77.8245 19.9997C77.9678 19.9987 78.1059 19.949 78.214 19.8597C78.2372 19.8351 78.2618 19.8117 78.2877 19.7897L78.814 19.2897L78.8508 19.2547L81.3297 16.7547L81.7192 16.3297L81.8244 16.2097L82.1086 15.8797L83.0139 14.7998C83.4402 14.2698 83.8244 13.7548 84.1297 13.2998L84.1823 13.2248C84.2876 13.0648 84.3928 12.9098 84.4875 12.7548L84.5928 12.5848C84.6718 12.4648 84.7454 12.3448 84.8139 12.2198L84.9191 12.0348C84.9928 11.9148 85.056 11.7898 85.1244 11.6648L85.1928 11.4998C85.277 11.3248 85.3612 11.1498 85.4507 10.9448C85.5402 10.7398 85.5823 10.6198 85.6402 10.4448L85.6928 10.2848C85.7349 10.1598 85.7717 10.0448 85.8033 9.92485L85.8507 9.74485C85.877 9.62485 85.8981 9.50986 85.9244 9.34986V9.23486C85.9468 9.06901 85.9591 8.90207 85.9612 8.73487C85.9497 4.46952 82.3143 1.01374 77.8245 1Z" fill="#FFB13E"/>
<path fill-rule="evenodd" clip-rule="evenodd" d="M77.5835 5.75C79.6546 5.75 81.3335 7.34499 81.3335 9.3125C81.3335 11.28 79.6546 12.875 77.5835 12.875C75.5124 12.875 73.8335 11.28 73.8335 9.3125C73.8335 7.34499 75.5124 5.75 77.5835 5.75ZM77.5835 7.33333C76.4329 7.33333 75.5002 8.21944 75.5002 9.3125C75.5002 10.4056 76.4329 11.2917 77.5835 11.2917C78.7341 11.2917 79.6668 10.4056 79.6668 9.3125C79.6668 8.21944 78.7341 7.33333 77.5835 7.33333Z" fill="white"/>
</g>
<defs>
<filter id="filter0_d_104_17107" x="0" y="0" width="138" height="22" filterUnits="userSpaceOnUse" color-interpolation-filters="sRGB">
<feFlood flood-opacity="0" result="BackgroundImageFix"/>
<feColorMatrix in="SourceAlpha" type="matrix" values="0 0 0 0 0 0 0 0 0 0 0 0 0 0 0 0 0 0 127 0" result="hardAlpha"/>
<feOffset dy="1"/>
<feGaussianBlur stdDeviation="0.5"/>
<feComposite in2="hardAlpha" operator="out"/>
<feColorMatrix type="matrix" values="0 0 0 0 0 0 0 0 0 0 0 0 0 0 0 0 0 0 0.25 0"/>
<feBlend mode="normal" in2="BackgroundImageFix" result="effect1_dropShadow_104_17107"/>
<feBlend mode="normal" in="SourceGraphic" in2="effect1_dropShadow_104_17107" result="shape"/>
</filter>
</defs>
</svg>
